<svg width="1114" height="406" viewBox="0 0 1114 406" fill="none" xmlns="http://www.w3.org/2000/svg">
<path d="M762.279 168.749L764.04 173.429L762.279 168.749ZM1108.33 401.471C1108.02 404.214 1105.54 406.182 1102.79 405.867L1058.09 400.721C1055.34 400.406 1053.38 397.926 1053.69 395.183C1054.01 392.439 1056.49 390.471 1059.23 390.787L1098.97 395.361L1103.54 355.623C1103.86 352.88 1106.34 350.912 1109.08 351.227C1111.82 351.543 1113.79 354.023 1113.48 356.766L1108.33 401.471ZM11.9396 2.72659C11.8447 3.22368 11.7557 3.71805 11.6724 4.20974L1.81271 2.54064C1.90768 1.97958 2.00907 1.41663 2.11688 0.851785L11.9396 2.72659ZM11.2421 7.12765C11.1216 8.08961 11.0238 9.04099 10.9482 9.98194L0.980286 9.18208C1.06788 8.09043 1.18101 6.99113 1.31972 5.8842L11.2421 7.12765ZM10.7882 12.7739C10.7569 13.6943 10.7475 14.6046 10.7596 15.505L0.76045 15.639C0.746245 14.5785 0.7574 13.5101 0.794012 12.4339L10.7882 12.7739ZM10.8598 18.1772C10.9145 19.0583 10.9903 19.9299 11.0869 20.7923L1.14896 21.9051C1.03385 20.8771 0.943823 19.8409 0.879021 18.7964L10.8598 18.1772ZM11.4511 23.4284C11.6017 24.3426 11.7764 25.2467 11.9749 26.1409L2.21237 28.3074C1.97401 27.2333 1.7645 26.1489 1.58413 25.0543L11.4511 23.4284ZM12.6413 28.7951C12.887 29.6704 13.1563 30.5366 13.449 31.394L3.98505 34.6242C3.63308 33.593 3.3091 32.551 3.01349 31.498L12.6413 28.7951ZM14.3969 33.9405C14.7362 34.7808 15.0989 35.613 15.4847 36.4372L6.42779 40.6767C5.96622 39.6906 5.53153 38.6932 5.1242 37.6843L14.3969 33.9405ZM16.7118 38.8866C17.1301 39.6693 17.5702 40.445 18.032 41.2138L9.45959 46.363C8.91298 45.4529 8.3904 44.532 7.89235 43.6001L16.7118 38.8866ZM19.4672 43.477C19.9669 44.2247 20.4879 44.9661 21.0302 45.7009L12.9837 51.6384C12.3508 50.7806 11.7403 49.9122 11.1527 49.0329L19.4672 43.477ZM22.7208 47.8865C23.3056 48.6087 23.9117 49.3246 24.5389 50.0342L17.0463 56.6569C16.3257 55.8417 15.6265 55.016 14.9493 54.1796L22.7208 47.8865ZM26.484 52.1442C27.1535 52.8412 27.8441 53.532 28.5557 54.2166L21.6231 61.4234C20.8187 60.6496 20.0348 59.8656 19.2718 59.0712L26.484 52.1442ZM30.5296 56.0511C31.1949 56.6487 31.8765 57.2414 32.5745 57.8291L26.1335 65.4786C25.3554 64.8234 24.5929 64.1605 23.8463 63.4897L30.5296 56.0511ZM34.7173 59.5773C35.4478 60.1551 36.1945 60.7277 36.9573 61.2954L30.9871 69.3177C30.1477 68.6929 29.3233 68.0607 28.5143 67.4209L34.7173 59.5773ZM39.2937 62.9833C40.0884 63.5408 40.899 64.0933 41.7254 64.6407L36.2031 72.9776C35.3042 72.3822 34.4199 71.7795 33.5505 71.1696L39.2937 62.9833ZM44.2516 66.2676C45.0946 66.7956 45.9526 67.3186 46.8254 67.8366L41.7215 76.436C40.7817 75.8783 39.8556 75.3138 38.9435 74.7425L44.2516 66.2676ZM49.1799 69.2017C49.9763 69.6528 50.7842 70.1 51.6035 70.5433L46.8448 79.3385C45.9697 78.865 45.1051 78.3864 44.2512 77.9027L49.1799 69.2017ZM54.0956 71.8615C54.9376 72.297 55.7908 72.7285 56.6553 73.1562L52.221 82.1193C51.3042 81.6658 50.3977 81.2073 49.5017 80.7439L54.0956 71.8615ZM59.2818 74.4274C60.1684 74.8472 61.0659 75.2631 61.9743 75.6751L57.8441 84.7823C56.8867 84.3481 55.9393 83.9091 55.002 83.4653L59.2818 74.4274ZM64.7321 76.8993C65.6621 77.3035 66.6029 77.7038 67.5543 78.1001L63.7084 87.331C62.7112 86.9156 61.7239 86.4955 60.7464 86.0707L64.7321 76.8993ZM70.3589 79.2451C71.2126 79.5866 72.0743 79.9252 72.944 80.2607L69.3446 89.5904C68.4371 89.2403 67.537 88.8868 66.6444 88.5297L70.3589 79.2451ZM75.5769 81.2583C76.4625 81.5879 77.3559 81.9145 78.2572 82.2381L74.8777 91.6497C73.9409 91.3133 73.0113 90.9736 72.0891 90.6304L75.5769 81.2583ZM80.9841 83.2C81.9008 83.5177 82.8252 83.8324 83.7572 84.1442L80.5848 93.6276C79.6193 93.3047 78.6609 92.9784 77.7097 92.6487L80.9841 83.2ZM86.5759 85.0707C87.523 85.3766 88.4776 85.6795 89.4396 85.9796L86.4621 95.526C85.4686 95.2162 84.482 94.903 83.5024 94.5866L86.5759 85.0707ZM92.3478 86.871C93.3245 87.1652 94.3085 87.4566 95.2998 87.745L92.5059 97.3468C91.4849 97.0497 90.4707 96.7494 89.4634 96.446L92.3478 86.871ZM98.2657 88.5934C99.1646 88.8462 100.069 89.0966 100.98 89.3449L98.3488 98.9926C97.4135 98.7376 96.4834 98.48 95.5586 98.22L98.2657 88.5934ZM103.727 90.0826C104.649 90.3263 105.576 90.5677 106.508 90.8068L104.024 100.493C103.068 100.248 102.117 100.001 101.171 99.7504L103.727 90.0826ZM109.322 91.5175C110.266 91.7521 111.215 91.9845 112.169 92.2147L109.824 101.936C108.847 101.7 107.875 101.462 106.909 101.222L109.322 91.5175ZM115.048 92.8985C116.013 93.1242 116.983 93.3478 117.958 93.5691L115.746 103.321C114.749 103.095 113.757 102.867 112.77 102.636L115.048 92.8985ZM120.9 94.2264C121.886 94.4434 122.877 94.6581 123.873 94.8707L121.786 104.65C120.77 104.434 119.758 104.214 118.751 103.993L120.9 94.2264ZM126.877 95.5019C127.883 95.7101 128.894 95.9162 129.911 96.1202L127.943 105.925C126.907 105.717 125.876 105.507 124.85 105.294L126.877 95.5019ZM132.767 96.6853C133.701 96.8675 134.639 97.0478 135.582 97.2265L133.719 107.051C132.76 106.87 131.804 106.686 130.853 106.5L132.767 96.6853ZM138.42 97.7572C139.37 97.9323 140.324 98.1057 141.283 98.2774L139.519 108.121C138.544 107.946 137.574 107.77 136.607 107.591L138.42 97.7572ZM144.168 98.7873C145.134 98.9555 146.104 99.122 147.078 99.2868L145.408 109.147C144.419 108.979 143.434 108.81 142.452 108.639L144.168 98.7873ZM150.01 99.7762C150.991 99.9376 151.976 100.097 152.965 100.255L151.386 110.13C150.383 109.97 149.383 109.807 148.386 109.644L150.01 99.7762ZM155.942 100.725C156.938 100.879 157.938 101.032 158.941 101.184L157.449 111.072C156.432 110.918 155.418 110.763 154.407 110.606L155.942 100.725ZM161.962 101.633C162.973 101.781 163.987 101.927 165.005 102.072L163.596 111.973C162.565 111.826 161.537 111.677 160.512 111.527L161.962 101.633ZM167.999 102.492C168.949 102.624 169.901 102.753 170.857 102.882L169.524 112.793C168.556 112.663 167.591 112.531 166.629 112.398L167.999 102.492ZM173.732 103.263C174.694 103.389 175.658 103.514 176.625 103.637L175.363 113.557C174.384 113.432 173.408 113.306 172.435 113.179L173.732 103.263ZM179.535 104.002C180.508 104.122 181.484 104.241 182.463 104.359L181.269 114.287C180.279 114.168 179.292 114.048 178.308 113.926L179.535 104.002ZM185.407 104.708C186.391 104.823 187.378 104.937 188.367 105.049L187.239 114.985C186.239 114.871 185.241 114.757 184.246 114.64L185.407 104.708ZM191.344 105.382C192.339 105.492 193.337 105.6 194.338 105.707L193.273 115.651C192.262 115.542 191.254 115.433 190.248 115.322L191.344 105.382ZM197.347 106.025C198.352 106.13 199.36 106.233 200.371 106.335L199.367 116.284C198.346 116.181 197.328 116.077 196.312 115.971L197.347 106.025ZM203.411 106.637C204.427 106.737 205.446 106.835 206.467 106.932L205.521 116.887C204.491 116.789 203.462 116.69 202.437 116.59L203.411 106.637ZM209.378 107.204C210.344 107.293 211.311 107.381 212.281 107.468L211.389 117.428C210.411 117.341 209.434 117.252 208.46 117.162L209.378 107.204ZM215.197 107.725C216.171 107.81 217.147 107.894 218.126 107.976L217.285 117.941C216.298 117.858 215.314 117.773 214.331 117.688L215.197 107.725ZM221.067 108.221C222.049 108.301 223.034 108.38 224.02 108.459L223.229 118.427C222.234 118.348 221.242 118.268 220.251 118.187L221.067 108.221ZM226.986 108.69C227.976 108.766 228.968 108.842 229.963 108.916L229.22 118.888C228.218 118.813 227.217 118.738 226.219 118.661L226.986 108.69ZM232.952 109.135C233.95 109.207 234.951 109.278 235.953 109.348L235.256 119.323C234.247 119.253 233.239 119.181 232.233 119.109L232.952 109.135ZM238.965 109.555C239.971 109.623 240.978 109.689 241.988 109.755L241.336 119.734C240.32 119.668 239.304 119.6 238.291 119.532L238.965 109.555ZM245.022 109.95C246.035 110.014 247.05 110.077 248.067 110.139L247.459 120.121C246.435 120.058 245.413 119.995 244.393 119.93L245.022 109.95ZM251.038 110.317C252.012 110.374 252.987 110.431 253.964 110.486L253.396 120.47C252.413 120.414 251.431 120.357 250.45 120.3L251.038 110.317ZM256.9 110.65C257.88 110.704 258.862 110.757 259.845 110.809L259.316 120.795C258.326 120.743 257.338 120.689 256.352 120.635L256.9 110.65ZM262.799 110.963C263.785 111.013 264.772 111.063 265.761 111.111L265.27 121.099C264.275 121.05 263.281 121 262.289 120.95L262.799 110.963ZM268.733 111.255C269.725 111.302 270.718 111.348 271.713 111.393L271.258 121.383C270.257 121.337 269.258 121.291 268.26 121.243L268.733 111.255ZM274.701 111.526C275.699 111.57 276.697 111.613 277.698 111.655L277.278 121.646C276.272 121.604 275.268 121.561 274.264 121.517L274.701 111.526ZM280.702 111.778C281.705 111.818 282.709 111.858 283.714 111.897L283.329 121.889C282.318 121.85 281.308 121.811 280.3 121.77L280.702 111.778ZM286.734 112.011C287.742 112.048 288.751 112.084 289.762 112.12L289.41 122.113C288.394 122.078 287.379 122.041 286.366 122.004L286.734 112.011ZM292.797 112.224C293.787 112.257 294.779 112.29 295.771 112.322L295.451 122.316C294.453 122.284 293.457 122.252 292.461 122.218L292.797 112.224ZM298.719 112.414C299.703 112.444 300.688 112.473 301.674 112.501L301.384 122.497C300.393 122.469 299.403 122.439 298.415 122.409L298.719 112.414ZM304.634 112.585C305.622 112.612 306.611 112.639 307.601 112.664L307.341 122.661C306.346 122.635 305.352 122.609 304.359 122.581L304.634 112.585ZM310.574 112.74C311.566 112.764 312.559 112.788 313.552 112.811L313.321 122.808C312.322 122.785 311.325 122.761 310.328 122.737L310.574 112.74ZM316.537 112.878C317.532 112.9 318.529 112.921 319.527 112.941L319.322 122.939C318.32 122.919 317.319 122.897 316.319 122.876L316.537 112.878ZM322.522 113C323.521 113.019 324.521 113.038 325.522 113.055L325.345 123.054C324.34 123.036 323.335 123.018 322.331 122.998L322.522 113ZM328.528 113.107C329.531 113.123 330.534 113.139 331.538 113.154L331.387 123.153C330.379 123.138 329.371 123.122 328.364 123.105L328.528 113.107ZM334.554 113.198C335.56 113.212 336.566 113.225 337.574 113.238L337.448 123.237C336.436 123.224 335.425 123.211 334.415 123.197L334.554 113.198ZM340.584 113.274C341.572 113.285 342.559 113.296 343.548 113.306L343.446 123.305C342.454 123.295 341.462 123.284 340.471 123.273L340.584 113.274ZM346.516 113.334C347.506 113.343 348.496 113.351 349.487 113.359L349.409 123.359C348.414 123.351 347.42 123.343 346.426 123.334L346.516 113.334ZM352.463 113.381C353.455 113.387 354.448 113.393 355.442 113.399L355.386 123.399C354.389 123.393 353.392 123.387 352.396 123.38L352.463 113.381ZM358.424 113.414C359.419 113.418 360.414 113.422 361.41 113.426L361.377 123.426C360.377 123.422 359.378 123.418 358.38 123.414L358.424 113.414ZM364.399 113.434C365.396 113.436 366.394 113.438 367.391 113.439L367.379 123.439C366.378 123.438 365.377 123.436 364.376 123.434L364.399 113.434ZM370.387 113.441C371.385 113.442 372.385 113.441 373.384 113.441L373.393 123.441C372.39 123.441 371.387 123.442 370.385 123.441L370.387 113.441ZM376.385 113.436C377.385 113.435 378.386 113.432 379.388 113.429L379.416 123.429C378.412 123.432 377.407 123.435 376.403 123.436L376.385 113.436ZM382.393 113.419C383.395 113.416 384.398 113.411 385.401 113.406L385.449 123.406C384.443 123.411 383.437 123.415 382.432 123.419L382.393 113.419ZM388.398 113.391C389.391 113.385 390.385 113.379 391.379 113.372L391.445 123.372C390.448 123.378 389.452 123.385 388.455 123.39L388.398 113.391ZM394.361 113.351C395.356 113.343 396.35 113.335 397.345 113.327L397.43 123.326C396.432 123.335 395.435 123.343 394.437 123.35L394.361 113.351ZM400.331 113.3C401.327 113.291 402.322 113.281 403.318 113.271L403.421 123.27C402.422 123.28 401.423 123.29 400.425 123.3L400.331 113.3ZM406.307 113.239C407.303 113.228 408.3 113.216 409.296 113.204L409.416 123.204C408.417 123.216 407.417 123.227 406.418 123.238L406.307 113.239ZM412.287 113.167C413.284 113.155 414.281 113.141 415.278 113.128L415.414 123.127C414.415 123.141 413.415 123.154 412.415 123.167L412.287 113.167ZM418.27 113.086C419.268 113.072 420.266 113.057 421.263 113.042L421.415 123.04C420.415 123.056 419.415 123.07 418.415 123.085L418.27 113.086ZM424.256 112.995C425.254 112.979 426.252 112.963 427.25 112.946L427.418 122.944C426.417 122.961 425.417 122.978 424.416 122.994L424.256 112.995ZM430.244 112.894C431.242 112.877 432.239 112.859 433.237 112.841L433.42 122.839C432.42 122.858 431.419 122.875 430.419 122.893L430.244 112.894ZM436.232 112.785C437.231 112.766 438.23 112.747 439.228 112.727L439.426 122.725C438.425 122.745 437.423 122.764 436.422 122.783L436.232 112.785ZM442.224 112.667C443.223 112.647 444.221 112.626 445.22 112.605L445.431 122.603C444.43 122.624 443.429 122.644 442.428 122.665L442.224 112.667ZM448.214 112.541C449.213 112.519 450.211 112.497 451.208 112.474L451.433 122.472C450.433 122.494 449.433 122.516 448.432 122.538L448.214 112.541ZM454.202 112.406C455.199 112.383 456.197 112.36 457.194 112.336L457.431 122.333C456.432 122.357 455.433 122.38 454.433 122.403L454.202 112.406ZM460.185 112.264C461.181 112.239 462.178 112.215 463.174 112.19L463.425 122.187C462.426 122.212 461.428 122.236 460.429 122.261L460.185 112.264ZM466.163 112.114C467.159 112.089 468.154 112.063 469.149 112.037L469.412 122.033C468.415 122.059 467.417 122.085 466.419 122.111L466.163 112.114ZM472.134 111.957C473.129 111.931 474.124 111.904 475.118 111.876L475.392 121.873C474.396 121.9 473.399 121.927 472.403 121.954L472.134 111.957ZM478.099 111.794C479.092 111.766 480.085 111.738 481.078 111.71L481.363 121.706C480.369 121.734 479.374 121.762 478.379 121.79L478.099 111.794ZM484.074 111.623C485.078 111.594 486.082 111.565 487.086 111.535L487.382 121.531C486.377 121.56 485.371 121.59 484.365 121.619L484.074 111.623ZM490.094 111.445C491.097 111.415 492.099 111.384 493.101 111.354L493.407 121.349C492.404 121.38 491.4 121.41 490.396 121.44L490.094 111.445ZM496.104 111.261C497.104 111.229 498.105 111.198 499.104 111.166L499.421 121.161C498.419 121.193 497.418 121.225 496.415 121.256L496.104 111.261ZM502.101 111.071C503.1 111.039 504.098 111.006 505.095 110.974L505.421 120.968C504.422 121.001 503.423 121.033 502.423 121.066L502.101 111.071ZM508.086 110.876C509.082 110.843 510.078 110.809 511.073 110.776L511.408 120.77C510.412 120.804 509.414 120.837 508.417 120.87L508.086 110.876ZM514.057 110.675C515.05 110.642 516.044 110.608 517.036 110.574L517.38 120.568C516.386 120.602 515.391 120.636 514.396 120.67L514.057 110.675ZM520.012 110.471C521.003 110.436 521.994 110.401 522.984 110.367L523.335 120.36C522.344 120.395 521.352 120.43 520.36 120.465L520.012 110.471ZM525.951 110.262C526.939 110.226 527.927 110.191 528.914 110.155L529.274 120.149C528.286 120.185 527.297 120.22 526.307 120.255L525.951 110.262ZM531.928 110.046C532.938 110.01 533.947 109.973 534.954 109.936L535.321 119.929C534.312 119.966 533.302 120.003 532.292 120.04L531.928 110.046ZM537.976 109.824C538.982 109.787 539.987 109.75 540.991 109.712L541.365 119.705C540.36 119.743 539.353 119.78 538.346 119.817L537.976 109.824ZM544.002 109.599C545.005 109.561 546.006 109.523 547.007 109.485L547.388 119.478C546.386 119.516 545.383 119.554 544.379 119.592L544.002 109.599ZM550.007 109.37C551.006 109.332 552.004 109.293 553.001 109.255L553.387 119.247C552.389 119.286 551.39 119.324 550.39 119.363L550.007 109.37ZM555.988 109.139C556.983 109.1 557.977 109.061 558.97 109.022L559.362 119.014C558.369 119.053 557.374 119.092 556.378 119.131L555.988 109.139ZM561.946 108.905C562.937 108.866 563.927 108.827 564.915 108.787L565.313 118.779C564.323 118.819 563.332 118.858 562.341 118.897L561.946 108.905ZM567.878 108.669C568.865 108.63 569.85 108.59 570.834 108.551L571.236 118.542C570.251 118.582 569.265 118.622 568.278 118.661L567.878 108.669ZM573.784 108.432C574.78 108.391 575.776 108.351 576.77 108.311L577.176 118.302C576.181 118.343 575.185 118.383 574.188 118.423L573.784 108.432ZM579.816 108.186C580.83 108.145 581.842 108.104 582.854 108.062L583.264 118.054C582.252 118.095 581.238 118.137 580.224 118.178L579.816 108.186ZM585.884 107.938C586.892 107.896 587.9 107.854 588.905 107.813L589.319 117.804C588.312 117.846 587.304 117.888 586.295 117.929L585.884 107.938ZM591.919 107.688C592.922 107.646 593.924 107.605 594.924 107.563L595.34 117.555C594.339 117.596 593.337 117.638 592.334 117.679L591.919 107.688ZM597.921 107.438C598.918 107.397 599.914 107.355 600.908 107.313L601.326 117.305C600.331 117.346 599.335 117.388 598.338 117.43L597.921 107.438ZM603.887 107.189C604.878 107.147 605.868 107.106 606.856 107.064L607.276 117.055C606.288 117.097 605.297 117.138 604.306 117.18L603.887 107.189ZM609.817 106.94C610.802 106.898 611.786 106.857 612.768 106.815L613.188 116.807C612.206 116.848 611.222 116.889 610.237 116.931L609.817 106.94ZM615.709 106.692C616.688 106.65 617.665 106.609 618.64 106.568L619.062 116.559C618.086 116.6 617.109 116.641 616.13 116.683L615.709 106.692ZM621.651 106.441C622.674 106.398 623.695 106.355 624.715 106.312L625.136 116.303C624.117 116.346 623.095 116.389 622.072 116.432L621.651 106.441ZM627.767 106.183C628.783 106.14 629.797 106.098 630.808 106.055L631.229 116.046C630.217 116.089 629.204 116.132 628.188 116.174L627.767 106.183ZM633.837 105.928C634.845 105.885 635.851 105.843 636.855 105.801L637.274 115.792C636.27 115.834 635.265 115.877 634.257 115.919L633.837 105.928ZM639.86 105.675C640.859 105.633 641.857 105.592 642.852 105.55L643.269 115.542C642.274 115.583 641.277 115.625 640.278 115.667L639.86 105.675ZM645.832 105.426C646.823 105.385 647.813 105.344 648.799 105.303L649.214 115.294C648.227 115.335 647.239 115.376 646.248 115.417L645.832 105.426ZM651.754 105.181C652.736 105.14 653.717 105.1 654.695 105.06L655.106 115.051C654.128 115.091 653.148 115.132 652.166 115.172L651.754 105.181ZM657.623 104.94C658.597 104.9 659.568 104.86 660.537 104.821L660.944 114.812C659.975 114.852 659.005 114.891 658.031 114.931L657.623 104.94ZM663.541 104.699C664.573 104.657 665.602 104.616 666.629 104.575L667.03 114.567C666.004 114.608 664.976 114.649 663.945 114.691L663.541 104.699ZM669.701 104.452C670.722 104.411 671.741 104.371 672.757 104.331L673.151 114.323C672.137 114.363 671.119 114.403 670.099 114.444L669.701 104.452ZM675.796 104.211C676.806 104.172 677.813 104.133 678.818 104.094L679.205 114.086C678.202 114.125 677.196 114.164 676.187 114.204L675.796 104.211ZM681.823 103.978C682.822 103.939 683.818 103.901 684.811 103.864L685.19 113.857C684.198 113.894 683.204 113.932 682.206 113.97L681.823 103.978ZM687.781 103.752C688.768 103.715 689.752 103.678 690.733 103.642L691.103 113.635C690.123 113.671 689.141 113.708 688.155 113.745L687.781 103.752ZM693.668 103.534C694.643 103.499 695.615 103.464 696.584 103.429L696.943 113.422C695.976 113.457 695.005 113.492 694.032 113.528L693.668 103.534ZM699.481 103.325C700.475 103.29 701.466 103.256 702.453 103.221L702.8 113.215C701.815 113.249 700.826 113.284 699.835 113.319L699.481 103.325ZM705.573 103.114C706.61 103.079 707.642 103.044 708.671 103.01L709.004 113.004C707.978 113.038 706.948 113.073 705.914 113.108L705.573 103.114ZM711.745 102.908C712.766 102.875 713.782 102.842 714.795 102.81L715.113 112.805C714.103 112.837 713.089 112.87 712.07 112.903L711.745 102.908ZM717.822 102.715C718.827 102.684 719.828 102.654 720.825 102.624L721.125 112.619C720.131 112.649 719.133 112.679 718.131 112.71L717.822 102.715ZM723.803 102.535C724.792 102.507 725.776 102.478 726.757 102.451L727.038 112.447C726.061 112.474 725.08 112.502 724.094 112.531L723.803 102.535ZM729.685 102.37C730.657 102.343 731.625 102.318 732.588 102.293L732.849 112.289C731.889 112.314 730.925 112.34 729.956 112.366L729.685 102.37ZM735.466 102.219C736.455 102.194 737.44 102.17 738.421 102.147L738.658 112.144C737.682 112.167 736.701 112.191 735.715 112.216L735.466 102.219ZM741.58 102.074C742.628 102.051 743.67 102.028 744.707 102.006L744.916 112.004C743.885 112.026 742.847 112.048 741.804 112.072L741.58 102.074ZM747.799 101.944C748.824 101.924 749.844 101.905 750.858 101.886L751.037 111.885C750.028 111.903 749.014 111.922 747.994 111.942L747.799 101.944ZM753.882 101.835C754.884 101.819 755.88 101.803 756.871 101.789L757.016 111.788C756.031 111.802 755.04 111.817 754.044 111.834L753.882 101.835ZM759.824 101.749C760.803 101.736 761.775 101.725 762.742 101.714L762.85 111.714C761.889 111.724 760.923 111.736 759.951 111.748L759.824 101.749ZM765.623 101.686C766.578 101.678 767.526 101.67 768.468 101.664L768.535 111.664C767.6 111.67 766.659 111.678 765.711 111.686L765.623 101.686ZM771.513 101.647C772.588 101.643 773.654 101.64 774.712 101.638L774.728 111.638C773.679 111.64 772.622 111.643 771.556 111.647L771.513 101.647ZM777.86 101.637C778.901 101.639 779.933 101.642 780.956 101.646L780.914 111.646C779.9 111.642 778.878 111.639 777.847 111.637L777.86 101.637ZM784.001 101.664C785.007 101.671 786.004 101.68 786.992 101.691L786.884 111.69C785.907 111.68 784.921 111.671 783.926 111.663L784.001 101.664ZM789.931 101.728C790.901 101.742 791.863 101.758 792.815 101.775L792.634 111.773C791.694 111.756 790.745 111.741 789.787 111.727L789.931 101.728ZM795.645 101.832C796.627 101.854 797.599 101.877 798.561 101.903L798.294 111.899C797.348 111.874 796.391 111.851 795.423 111.829L795.645 101.832ZM801.848 102C802.93 102.034 803.999 102.072 805.053 102.112L804.672 112.105C803.638 112.065 802.59 112.029 801.527 111.994L801.848 102ZM808.174 102.241C809.2 102.287 810.212 102.335 811.209 102.387L810.695 112.374C809.721 112.323 808.732 112.276 807.728 112.231L808.174 102.241ZM814.159 102.55C815.128 102.607 816.083 102.667 817.023 102.73L816.352 112.708C815.44 112.646 814.513 112.588 813.57 112.532L814.159 102.55ZM819.798 102.929C820.867 103.01 821.915 103.096 822.943 103.186L822.071 113.148C821.083 113.061 820.072 112.979 819.039 112.9L819.798 102.929ZM826.292 103.502C827.383 103.613 828.449 103.73 829.488 103.853L828.317 113.784C827.333 113.668 826.321 113.557 825.279 113.451L826.292 103.502ZM832.53 104.238C833.519 104.373 834.481 104.514 835.418 104.661L833.864 114.54C833 114.404 832.105 114.273 831.18 114.147L832.53 104.238ZM838.15 105.123C839.322 105.336 840.449 105.561 841.531 105.799L839.379 115.565C838.431 115.356 837.425 115.155 836.363 114.962L838.15 105.123ZM844.971 106.646C846.063 106.946 847.104 107.267 848.09 107.61L844.802 117.054C844.052 116.793 843.225 116.537 842.319 116.288L844.971 106.646ZM850.901 108.721C852.231 109.319 853.484 110.004 854.603 110.799L848.811 118.951C848.34 118.616 847.684 118.239 846.798 117.84L850.901 108.721ZM857.998 114.227C858.945 115.673 859.529 117.334 859.61 119.148L849.62 119.593C849.621 119.609 849.623 119.629 849.627 119.652C849.631 119.675 849.637 119.696 849.642 119.713C849.655 119.749 849.66 119.748 849.632 119.705L857.998 114.227ZM858.545 124.224C857.893 125.641 856.983 126.971 855.925 128.219L848.298 121.751C848.935 121 849.283 120.43 849.462 120.041L858.545 124.224ZM853.907 130.352C853.174 131.056 852.375 131.761 851.514 132.468L845.167 124.741C845.855 124.175 846.458 123.641 846.981 123.139L853.907 130.352ZM848.731 134.61C847.736 135.332 846.672 136.064 845.539 136.807L840.055 128.445C841.072 127.778 842.005 127.136 842.857 126.517L848.731 134.61ZM843.268 138.254C842.511 138.723 841.727 139.198 840.914 139.677L835.829 131.067C836.584 130.621 837.307 130.184 837.999 129.755L843.268 138.254ZM838.392 141.134C837.523 141.625 836.626 142.122 835.699 142.625L830.927 133.837C831.807 133.359 832.655 132.89 833.472 132.428L838.392 141.134ZM832.831 144.153C831.846 144.669 830.831 145.191 829.787 145.719L825.272 136.797C826.278 136.288 827.252 135.787 828.194 135.293L832.831 144.153ZM826.665 147.275C825.891 147.655 825.102 148.039 824.298 148.425L819.963 139.413C820.744 139.038 821.509 138.666 822.258 138.299L826.665 147.275ZM821.841 149.595C821.007 149.989 820.158 150.386 819.293 150.786L815.091 141.712C815.935 141.321 816.762 140.934 817.575 140.551L821.841 149.595ZM816.654 151.998C815.758 152.405 814.848 152.816 813.922 153.23L809.837 144.103C810.744 143.697 811.636 143.294 812.512 142.896L816.654 151.998ZM811.097 154.485C810.139 154.906 809.166 155.331 808.178 155.76L804.198 146.586C805.17 146.165 806.126 145.747 807.066 145.333L811.097 154.485ZM805.164 157.058C804.144 157.494 803.108 157.934 802.056 158.378L798.17 149.164C799.207 148.726 800.228 148.293 801.233 147.863L805.164 157.058ZM799.14 159.6C798.321 159.941 797.494 160.284 796.657 160.63L792.843 151.386C793.669 151.045 794.486 150.706 795.294 150.369L799.14 159.6ZM794.118 161.672C793.263 162.022 792.398 162.374 791.524 162.728L787.77 153.459C788.634 153.109 789.489 152.761 790.335 152.416L794.118 161.672ZM788.873 163.797C787.98 164.155 787.078 164.516 786.166 164.879L782.468 155.588C783.371 155.229 784.264 154.871 785.147 154.517L788.873 163.797ZM783.403 165.974C782.472 166.342 781.532 166.712 780.582 167.084L776.935 157.772C777.877 157.404 778.808 157.037 779.73 156.673L783.403 165.974ZM777.705 168.206C776.736 168.583 775.757 168.962 774.769 169.343L771.171 160.013C772.151 159.635 773.121 159.259 774.082 158.885L777.705 168.206ZM771.776 170.493C770.769 170.879 769.752 171.267 768.725 171.657L765.172 162.31C766.191 161.922 767.201 161.537 768.201 161.154L771.776 170.493ZM765.616 172.835C765.093 173.032 764.567 173.23 764.04 173.429L760.518 164.07C761.042 163.872 761.564 163.676 762.084 163.479L765.616 172.835ZM764.04 173.429C763.534 173.619 763.031 173.809 762.528 173.998L759 164.641C759.505 164.451 760.011 164.26 760.518 164.07L764.04 173.429ZM759.527 175.132C758.532 175.509 757.542 175.885 756.556 176.26L753.002 166.913C753.992 166.536 754.986 166.159 755.986 165.78L759.527 175.132ZM753.615 177.381C752.64 177.753 751.669 178.125 750.703 178.495L747.122 169.159C748.092 168.786 749.067 168.413 750.047 168.039L753.615 177.381ZM747.821 179.603C746.865 179.972 745.915 180.339 744.969 180.705L741.358 171.38C742.309 171.012 743.265 170.642 744.225 170.272L747.821 179.603ZM742.145 181.801C741.209 182.165 740.278 182.528 739.351 182.89L735.712 173.576C736.643 173.212 737.579 172.847 738.521 172.481L742.145 181.801ZM736.586 183.973C735.669 184.333 734.757 184.692 733.85 185.049L730.181 175.747C731.093 175.387 732.01 175.026 732.932 174.664L736.586 183.973ZM731.143 186.12C730.246 186.476 729.353 186.83 728.465 187.184L724.764 177.894C725.658 177.538 726.555 177.181 727.458 176.823L731.143 186.12ZM725.816 188.242C724.937 188.593 724.064 188.944 723.195 189.294L719.462 180.016C720.337 179.665 721.216 179.312 722.099 178.958L725.816 188.242ZM720.603 190.339C719.638 190.73 718.678 191.119 717.724 191.507L713.956 182.244C714.916 181.854 715.882 181.462 716.854 181.069L720.603 190.339ZM714.749 192.721C713.764 193.124 712.785 193.526 711.813 193.927L708.004 184.68C708.983 184.277 709.969 183.872 710.961 183.466L714.749 192.721ZM708.917 195.124C707.958 195.521 707.005 195.918 706.059 196.312L702.207 187.084C703.161 186.686 704.12 186.287 705.087 185.886L708.917 195.124ZM703.24 197.493C702.307 197.885 701.38 198.276 700.46 198.665L696.564 189.455C697.492 189.063 698.426 188.669 699.367 188.273L703.24 197.493ZM697.718 199.829C696.811 200.215 695.91 200.6 695.015 200.984L691.073 191.794C691.975 191.407 692.884 191.018 693.799 190.628L697.718 199.829ZM692.35 202.131C691.468 202.512 690.592 202.892 689.723 203.27L685.732 194.101C686.61 193.719 687.494 193.336 688.384 192.952L692.35 202.131ZM687.134 204.401C686.277 204.777 685.427 205.151 684.583 205.524L680.542 196.377C681.395 196 682.253 195.622 683.119 195.243L687.134 204.401ZM681.933 206.699C680.936 207.143 679.948 207.585 678.97 208.025L674.869 198.905C675.859 198.46 676.857 198.013 677.864 197.565L681.933 206.699ZM676.06 209.34C675.1 209.776 674.148 210.21 673.205 210.642L669.037 201.552C669.992 201.115 670.955 200.675 671.927 200.234L676.06 209.34ZM670.402 211.934C669.477 212.362 668.561 212.789 667.653 213.214L663.415 204.156C664.334 203.726 665.263 203.294 666.2 202.86L670.402 211.934ZM664.957 214.482C664.067 214.903 663.186 215.322 662.313 215.739L658 206.717C658.885 206.294 659.779 205.869 660.681 205.442L664.957 214.482ZM659.722 216.985C658.867 217.398 658.02 217.81 657.183 218.219L652.79 209.236C653.641 208.819 654.501 208.401 655.369 207.982L659.722 216.985ZM654.696 219.443C653.86 219.856 653.033 220.267 652.215 220.677L647.738 211.736C648.57 211.319 649.411 210.9 650.261 210.479L654.696 219.443ZM649.292 222.152C648.33 222.641 647.382 223.127 646.446 223.61L641.857 214.725C642.812 214.232 643.78 213.736 644.76 213.238L649.292 222.152ZM643.677 225.052C642.767 225.53 641.869 226.005 640.985 226.477L636.276 217.655C637.182 217.171 638.099 216.686 639.03 216.198L643.677 225.052ZM638.369 227.885C637.509 228.352 636.663 228.815 635.829 229.277L630.991 220.525C631.847 220.051 632.716 219.575 633.597 219.097L638.369 227.885ZM633.364 230.652C632.555 231.107 631.758 231.56 630.974 232.01L625.996 223.337C626.805 222.873 627.625 222.407 628.457 221.938L633.364 230.652ZM628.659 233.352C627.699 233.914 626.759 234.472 625.838 235.025L620.687 226.454C621.641 225.881 622.614 225.303 623.607 224.722L628.659 233.352ZM623.124 236.679C622.239 237.226 621.373 237.768 620.527 238.306L615.161 229.868C616.044 229.306 616.947 228.741 617.868 228.172L623.124 236.679ZM618.049 239.907C617.242 240.436 616.455 240.96 615.687 241.48L610.08 233.2C610.89 232.651 611.719 232.099 612.565 231.544L618.049 239.907ZM613.441 243.027C612.711 243.538 612.001 244.044 611.31 244.546L605.435 236.454C606.173 235.918 606.929 235.378 607.703 234.836L613.441 243.027ZM608.784 246.424C607.934 247.072 607.117 247.711 606.333 248.343L600.062 240.553C600.919 239.863 601.806 239.169 602.723 238.47L608.784 246.424ZM604.078 250.211C603.359 250.826 602.673 251.431 602.019 252.028L595.279 244.641C596.017 243.967 596.785 243.29 597.581 242.609L604.078 250.211ZM600.153 253.791C599.476 254.455 598.841 255.106 598.248 255.745L590.923 248.936C591.629 248.178 592.371 247.416 593.152 246.651L600.153 253.791ZM596.29 257.983C595.696 258.71 595.161 259.415 594.682 260.099L586.494 254.358C587.125 253.458 587.81 252.556 588.548 251.654L596.29 257.983ZM593.41 262.081C592.98 262.822 592.623 263.528 592.332 264.201L583.156 260.224C583.615 259.166 584.151 258.113 584.759 257.064L593.41 262.081ZM591.564 266.416C591.389 267.107 591.288 267.757 591.248 268.369L581.269 267.722C581.35 266.464 581.554 265.207 581.872 263.954L591.564 266.416ZM591.318 270.225C591.408 270.845 591.567 271.461 591.8 272.079L582.444 275.607C581.963 274.334 581.619 273.018 581.422 271.663L591.318 270.225ZM592.749 273.979C593.093 274.532 593.505 275.098 593.99 275.674L586.339 282.114C585.572 281.202 584.874 280.252 584.258 279.261L592.749 273.979ZM595.634 277.397C596.255 277.979 596.948 278.566 597.715 279.155L591.627 287.087C590.624 286.318 589.679 285.521 588.796 284.695L595.634 277.397ZM599.792 280.633C600.485 281.092 601.22 281.551 601.999 282.007L596.941 290.634C596.015 290.091 595.122 289.535 594.265 288.967L599.792 280.633ZM604.46 283.369C605.322 283.821 606.225 284.269 607.168 284.714L602.902 293.758C601.842 293.258 600.814 292.748 599.821 292.228L604.46 283.369ZM609.701 285.859C610.515 286.211 611.354 286.562 612.218 286.909L608.485 296.186C607.544 295.808 606.623 295.423 605.724 295.034L609.701 285.859ZM614.881 287.943C615.793 288.285 616.728 288.624 617.687 288.96L614.38 298.397C613.357 298.039 612.354 297.675 611.371 297.307L614.881 287.943ZM620.632 289.959C621.529 290.253 622.444 290.546 623.377 290.836L620.408 300.385C619.426 300.08 618.461 299.771 617.511 299.459L620.632 289.959ZM626.057 291.648C626.966 291.917 627.89 292.184 628.829 292.448L626.117 302.073C625.138 301.798 624.173 301.519 623.221 301.238L626.057 291.648ZM631.69 293.236C632.658 293.496 633.641 293.754 634.638 294.011L632.149 303.696C631.117 303.431 630.099 303.163 629.093 302.893L631.69 293.236ZM637.672 294.773C638.606 295.003 639.551 295.231 640.507 295.457L638.204 305.188C637.219 304.956 636.246 304.721 635.283 304.484L637.672 294.773ZM643.285 296.103C644.221 296.317 645.167 296.529 646.123 296.74L643.969 306.506C642.99 306.289 642.019 306.072 641.058 305.852L643.285 296.103ZM649.021 297.369C649.997 297.577 650.982 297.783 651.977 297.989L649.957 307.782C648.941 307.573 647.934 307.362 646.936 307.149L649.021 297.369ZM654.991 298.601C656.005 298.803 657.028 299.004 658.06 299.204L656.158 309.022C655.107 308.818 654.065 308.613 653.031 308.407L654.991 298.601ZM660.911 299.749C661.852 299.926 662.8 300.103 663.755 300.278L661.949 310.114C660.979 309.936 660.016 309.756 659.059 309.576L660.911 299.749ZM666.641 300.801C667.61 300.974 668.586 301.147 669.569 301.318L667.85 311.169C666.853 310.995 665.863 310.821 664.88 310.645L666.641 300.801ZM672.537 301.83C673.533 301.999 674.536 302.168 675.545 302.336L673.904 312.2C672.882 312.031 671.867 311.86 670.858 311.688L672.537 301.83ZM678.592 302.837C679.597 303 680.608 303.163 681.625 303.325L680.054 313.201C679.026 313.037 678.004 312.873 676.987 312.707L678.592 302.837ZM684.489 303.776C685.449 303.926 686.413 304.075 687.383 304.223L685.871 314.108C684.892 313.958 683.918 313.808 682.948 313.656L684.489 303.776ZM690.308 304.666C691.288 304.813 692.273 304.96 693.262 305.106L691.803 314.999C690.805 314.852 689.812 314.704 688.823 314.555L690.308 304.666ZM696.245 305.542C697.244 305.686 698.248 305.831 699.256 305.974L697.846 315.874C696.83 315.73 695.818 315.584 694.811 315.438L696.245 305.542ZM702.295 306.404C703.312 306.546 704.334 306.688 705.36 306.83L703.994 316.736C702.961 316.594 701.932 316.45 700.907 316.307L702.295 306.404ZM708.276 307.229C709.243 307.361 710.215 307.492 711.19 307.623L709.86 317.534C708.879 317.402 707.902 317.27 706.928 317.138L708.276 307.229ZM714.125 308.014C715.108 308.144 716.093 308.273 717.083 308.403L715.787 318.318C714.792 318.188 713.801 318.058 712.813 317.927L714.125 308.014ZM720.061 308.789C721.057 308.918 722.056 309.046 723.059 309.174L721.794 319.094C720.786 318.965 719.782 318.836 718.78 318.707L720.061 308.789ZM726.078 309.557C727.087 309.684 728.1 309.811 729.115 309.938L727.877 319.861C726.857 319.734 725.84 319.606 724.826 319.478L726.078 309.557ZM732.172 310.318C733.144 310.438 734.119 310.558 735.097 310.677L733.882 320.603C732.901 320.483 731.922 320.363 730.946 320.242L732.172 310.318ZM738.035 311.035C739.017 311.154 740.002 311.273 740.989 311.392L739.795 321.321C738.805 321.201 737.817 321.082 736.831 320.963L738.035 311.035ZM743.959 311.748C744.951 311.866 745.945 311.985 746.943 312.103L745.766 322.033C744.766 321.915 743.769 321.796 742.773 321.677L743.959 311.748ZM749.941 312.457C750.943 312.574 751.947 312.692 752.953 312.81L751.793 322.742C750.784 322.624 749.777 322.506 748.773 322.388L749.941 312.457ZM755.979 313.162C756.99 313.28 758.003 313.397 759.018 313.514L757.871 323.448C756.854 323.331 755.838 323.213 754.825 323.096L755.979 313.162ZM762.002 313.858C762.984 313.971 763.968 314.084 764.954 314.197L763.818 324.132C762.83 324.019 761.844 323.906 760.86 323.793L762.002 313.858ZM767.918 314.535C768.907 314.648 769.899 314.761 770.892 314.873L769.764 324.81C768.769 324.697 767.777 324.584 766.786 324.471L767.918 314.535ZM773.876 315.211C774.872 315.324 775.87 315.437 776.87 315.55L775.749 325.487C774.748 325.374 773.749 325.261 772.752 325.148L773.876 315.211ZM779.873 315.888C780.876 316.001 781.88 316.114 782.886 316.227L781.769 326.164C780.763 326.051 779.758 325.938 778.755 325.825L779.873 315.888ZM785.907 316.566C786.915 316.679 787.925 316.792 788.936 316.905L787.823 326.843C786.812 326.73 785.801 326.617 784.792 326.504L785.907 316.566ZM791.908 317.238C792.897 317.349 793.888 317.46 794.879 317.571L793.767 327.509C792.776 327.398 791.785 327.287 790.796 327.176L791.908 317.238ZM797.857 317.904C798.851 318.015 799.846 318.126 800.842 318.238L799.73 328.176C798.734 328.064 797.739 327.953 796.746 327.842L797.857 317.904ZM803.833 318.573C804.83 318.684 805.829 318.796 806.829 318.908L805.715 328.846C804.715 328.734 803.717 328.622 802.72 328.51L803.833 318.573ZM809.831 319.245C810.832 319.358 811.834 319.47 812.837 319.583L811.719 329.52C810.717 329.408 809.715 329.295 808.715 329.183L809.831 319.245ZM815.849 319.922C816.853 320.036 817.858 320.149 818.864 320.263L817.741 330.2C816.736 330.086 815.732 329.973 814.728 329.859L815.849 319.922ZM821.848 320.601C822.843 320.714 823.838 320.827 824.834 320.94L823.703 330.876C822.709 330.763 821.715 330.65 820.722 330.537L821.848 320.601ZM827.822 321.28C828.819 321.394 829.816 321.508 830.813 321.623L829.674 331.558C828.678 331.443 827.683 331.329 826.688 331.216L827.822 321.28ZM833.807 321.967C834.805 322.082 835.804 322.197 836.803 322.312L835.654 332.246C834.656 332.131 833.66 332.016 832.663 331.901L833.807 321.967ZM839.8 322.66C840.8 322.776 841.799 322.893 842.799 323.009L841.638 332.942C840.64 332.825 839.643 332.709 838.645 332.593L839.8 322.66ZM845.799 323.361C846.799 323.479 847.799 323.597 848.8 323.715L847.625 333.646C846.627 333.528 845.629 333.41 844.632 333.293L845.799 323.361ZM851.797 324.07C852.796 324.189 853.796 324.308 854.795 324.428L853.605 334.357C852.609 334.238 851.612 334.119 850.616 334L851.797 324.07ZM857.792 324.788C858.79 324.909 859.789 325.03 860.788 325.151L859.582 335.078C858.586 334.957 857.59 334.837 856.594 334.716L857.792 324.788ZM863.783 325.516C864.781 325.638 865.779 325.761 866.777 325.884L865.553 335.809C864.558 335.686 863.564 335.564 862.568 335.442L863.783 325.516ZM869.769 326.255C870.766 326.378 871.763 326.503 872.76 326.628L871.515 336.55C870.523 336.426 869.529 336.302 868.535 336.178L869.769 326.255ZM875.747 327.004C876.743 327.13 877.738 327.256 878.733 327.383L877.467 337.303C876.476 337.177 875.485 337.051 874.493 336.925L875.747 327.004ZM881.737 327.769C882.741 327.898 883.743 328.028 884.746 328.158L883.456 338.074C882.458 337.945 881.459 337.815 880.46 337.687L881.737 327.769ZM887.75 328.551C888.751 328.682 889.751 328.814 890.75 328.947L889.435 338.86C888.44 338.728 887.445 338.596 886.448 338.465L887.75 328.551ZM893.746 329.346C894.744 329.48 895.741 329.614 896.737 329.749L895.394 339.659C894.403 339.524 893.411 339.391 892.417 339.257L893.746 329.346ZM899.723 330.156C900.717 330.292 901.71 330.429 902.703 330.566L901.331 340.472C900.343 340.335 899.355 340.199 898.366 340.063L899.723 330.156ZM905.677 330.981C906.667 331.119 907.657 331.259 908.645 331.399L907.242 341.3C906.259 341.16 905.275 341.022 904.29 340.884L905.677 330.981ZM911.655 331.828C912.662 331.972 913.668 332.118 914.672 332.263L913.235 342.16C912.236 342.015 911.236 341.87 910.235 341.727L911.655 331.828ZM917.682 332.703C918.684 332.851 919.685 332.999 920.684 333.148L919.21 343.039C918.217 342.891 917.223 342.743 916.227 342.597L917.682 332.703ZM923.678 333.597C924.674 333.747 925.669 333.898 926.662 334.05L925.15 343.935C924.163 343.784 923.175 343.634 922.185 343.485L923.678 333.597ZM929.638 334.509C930.628 334.662 931.617 334.817 932.604 334.972L931.05 344.851C930.07 344.697 929.088 344.543 928.105 344.391L929.638 334.509ZM935.56 335.44C936.544 335.597 937.526 335.755 938.506 335.914L936.909 345.785C935.936 345.628 934.961 345.471 933.985 345.315L935.56 335.44ZM941.538 336.408C942.547 336.573 943.554 336.74 944.56 336.908L942.915 346.772C941.918 346.605 940.918 346.44 939.917 346.276L941.538 336.408ZM947.569 337.414C948.571 337.583 949.57 337.754 950.567 337.925L948.871 347.78C947.883 347.61 946.892 347.441 945.9 347.273L947.569 337.414ZM953.551 338.443C954.543 338.616 955.534 338.791 956.522 338.966L954.772 348.812C953.794 348.638 952.812 348.465 951.829 348.293L953.551 338.443ZM959.479 339.496C960.462 339.674 961.443 339.852 962.421 340.032L960.615 349.868C959.646 349.69 958.675 349.513 957.701 349.337L959.479 339.496ZM965.35 340.574C966.347 340.761 967.341 340.948 968.333 341.136L966.466 350.96C965.484 350.774 964.501 350.589 963.514 350.404L965.35 340.574ZM971.365 341.718C972.373 341.913 973.378 342.109 974.38 342.307L972.446 352.118C971.455 351.923 970.462 351.729 969.465 351.536L971.365 341.718ZM977.377 342.903C978.373 343.103 979.366 343.304 980.356 343.507L978.351 353.304C977.373 353.104 976.392 352.905 975.408 352.707L977.377 342.903ZM983.316 344.118C984.299 344.324 985.28 344.53 986.257 344.738L984.176 354.519C983.212 354.314 982.245 354.11 981.274 353.908L983.316 344.118ZM989.178 345.365C990.148 345.576 991.115 345.787 992.079 346.001L989.919 355.765C988.969 355.554 988.015 355.346 987.058 355.138L989.178 345.365ZM995.042 346.663C996.056 346.892 997.067 347.123 998.074 347.355L995.826 357.099C994.834 356.87 993.838 356.643 992.839 356.417L995.042 346.663ZM1001.08 348.057C1002.08 348.293 1003.08 348.53 1004.07 348.769L1001.72 358.49C1000.75 358.255 999.77 358.022 998.787 357.79L1001.08 348.057ZM1007.02 349.49C1008.01 349.732 1008.98 349.976 1009.96 350.222L1007.51 359.918C1006.55 359.677 1005.59 359.437 1004.63 359.199L1007.02 349.49ZM1012.86 350.963C1013.83 351.212 1014.79 351.463 1015.74 351.716L1013.19 361.384C1012.25 361.136 1011.31 360.89 1010.36 360.646L1012.86 350.963ZM1018.59 352.478C1019.61 352.753 1020.62 353.029 1021.62 353.308L1018.95 362.944C1017.96 362.671 1016.98 362.4 1015.98 362.131L1018.59 352.478ZM1024.63 354.154C1025.63 354.438 1026.62 354.724 1027.6 355.013L1024.79 364.61C1023.83 364.328 1022.86 364.049 1021.89 363.771L1024.63 354.154ZM1030.54 355.885C1031.51 356.177 1032.48 356.473 1033.44 356.77L1030.49 366.324C1029.55 366.034 1028.61 365.747 1027.66 365.461L1030.54 355.885ZM1036.31 357.668C1037.26 357.97 1038.2 358.274 1039.14 358.581L1036.03 368.086C1035.12 367.788 1034.21 367.492 1033.28 367.199L1036.31 357.668ZM1041.94 359.51C1042.96 359.85 1043.96 360.194 1044.96 360.54L1041.68 369.987C1040.71 369.651 1039.74 369.318 1038.76 368.988L1041.94 359.51ZM1047.93 361.588C1048.91 361.94 1049.88 362.295 1050.85 362.653L1047.37 372.03C1046.44 371.684 1045.5 371.341 1044.55 371.001L1047.93 361.588ZM1053.72 363.737C1054.67 364.101 1055.61 364.468 1056.55 364.839L1052.86 374.134C1051.96 373.778 1051.06 373.425 1050.14 373.074L1053.72 363.737ZM1059.32 365.959C1060.24 366.336 1061.15 366.716 1062.05 367.099L1058.13 376.3C1057.27 375.934 1056.4 375.57 1055.52 375.209L1059.32 365.959ZM1064.96 368.365C1065.94 368.799 1066.91 369.238 1067.87 369.681L1063.68 378.76C1062.77 378.339 1061.85 377.922 1060.91 377.508L1064.96 368.365ZM1070.72 371.022C1071.66 371.474 1072.58 371.929 1073.5 372.39L1069 381.322C1068.14 380.889 1067.26 380.458 1066.38 380.031L1070.72 371.022ZM1076.2 373.784C1077.1 374.253 1077.98 374.726 1078.84 375.205L1074.02 383.963C1073.21 383.517 1072.38 383.073 1071.55 382.633L1076.2 373.784ZM1081.52 376.713C1082.47 377.264 1083.41 377.822 1084.33 378.386L1079.11 386.917C1078.26 386.396 1077.39 385.88 1076.51 385.368L1081.52 376.713ZM1087.05 380.096C1087.94 380.673 1088.81 381.256 1089.67 381.846L1084.01 390.088C1083.23 389.551 1082.43 389.019 1081.61 388.49L1087.05 380.096ZM1092.2 383.636C1093.02 384.239 1093.83 384.85 1094.62 385.467L1088.48 393.354C1087.77 392.802 1087.04 392.254 1086.3 391.709L1092.2 383.636ZM1097.12 387.485C1097.98 388.203 1098.81 388.931 1099.63 389.669L1092.9 397.07C1092.19 396.425 1091.46 395.785 1090.7 395.149L1097.12 387.485ZM1101.99 391.911C1102.76 392.669 1103.5 393.437 1104.22 394.215L1096.86 400.994C1096.25 400.331 1095.62 399.672 1094.96 399.018L1101.99 391.911ZM1106.3 396.583C1106.63 396.983 1106.96 397.386 1107.28 397.791L1099.45 404.008C1099.18 403.669 1098.9 403.332 1098.62 402.996L1106.3 396.583Z" fill="#00FF84"/>
</svg>
