<svg width="1122" height="407" viewBox="0 0 1122 407" fill="none" xmlns="http://www.w3.org/2000/svg">
<path d="M409.053 202.154L406.517 197.845L409.053 202.154ZM1088.04 405.3C1086.08 407.253 1082.92 407.253 1080.96 405.3L1049.14 373.481C1047.19 371.528 1047.19 368.362 1049.14 366.41C1051.1 364.457 1054.26 364.457 1056.22 366.41L1084.5 394.694L1112.78 366.41C1114.74 364.457 1117.9 364.457 1119.86 366.41C1121.81 368.362 1121.81 371.528 1119.86 373.481L1088.04 405.3ZM61.923 4.14586C61.7301 4.59799 61.5374 5.0506 61.345 5.50368L52.1408 1.59427C52.3354 1.13614 52.5303 0.678495 52.7253 0.221342L61.923 4.14586ZM60.1933 8.2277C59.8104 9.13755 59.4285 10.0492 59.0476 10.9626L49.8178 7.11422C50.2029 6.19056 50.5891 5.26869 50.9763 4.34868L60.1933 8.2277ZM57.9083 13.708C57.5296 14.6249 57.152 15.5434 56.7756 16.4635L47.5202 12.677C47.9009 11.7465 48.2827 10.8176 48.6657 9.89046L57.9083 13.708ZM55.6498 19.2287C55.2757 20.1519 54.9028 21.0768 54.5312 22.0031L45.2503 18.2796C45.6262 17.3427 46.0033 16.4074 46.3816 15.4736L55.6498 19.2287ZM53.4308 24.7596C53.0661 25.6775 52.7028 26.5967 52.3407 27.5173L43.0346 23.8573C43.4008 22.926 43.7684 21.9962 44.1372 21.0678L53.4308 24.7596ZM51.2586 30.2828C50.8992 31.206 50.5412 32.1303 50.1846 33.0559L40.8533 29.4605C41.2141 28.5241 41.5763 27.5889 41.9399 26.655L51.2586 30.2828ZM49.1189 35.8361C48.7652 36.7639 48.4129 37.6929 48.062 38.6229L38.7056 35.0935C39.0606 34.1524 39.4171 33.2123 39.7751 32.2735L49.1189 35.8361ZM47.0141 41.4161C46.6683 42.3429 46.324 43.2707 45.9812 44.1994L36.5997 40.7372C36.9466 39.7972 37.2951 38.8582 37.6451 37.9202L47.0141 41.4161ZM44.9578 46.9881C44.6183 47.9186 44.2803 48.8499 43.9441 49.782L34.5375 46.3883C34.8779 45.4447 35.22 44.5019 35.5638 43.56L44.9578 46.9881ZM42.9403 52.5805C42.6074 53.5141 42.2762 54.4485 41.9467 55.3834L32.5151 52.0601C32.8487 51.1132 33.1841 50.1671 33.5212 49.2218L42.9403 52.5805ZM40.9636 58.1903C40.6377 59.1266 40.3135 60.0636 39.9912 61.001L30.5345 57.7497C30.861 56.8001 31.1894 55.8511 31.5195 54.9027L40.9636 58.1903ZM39.0294 63.8164C38.7106 64.7554 38.3938 65.6948 38.0789 66.6346L28.597 63.4573C28.9162 62.505 29.2372 61.5532 29.5601 60.6019L39.0294 63.8164ZM37.1399 69.4552C36.8289 70.3958 36.5199 71.3367 36.2129 72.2779L26.7059 69.1767C27.0171 68.2226 27.3303 67.269 27.6455 66.3157L37.1399 69.4552ZM35.2979 75.1022C34.995 76.0438 34.6942 76.9857 34.3954 77.9278L24.8633 74.9049C25.1662 73.9496 25.4712 72.9946 25.7784 72.0399L35.2979 75.1022ZM33.5035 80.7608C33.2071 81.7094 32.9128 82.6582 32.6208 83.6069L23.0633 80.6651C23.3596 79.7026 23.6581 78.7402 23.9588 77.778L33.5035 80.7608ZM31.7514 86.4532C31.4639 87.402 31.1787 88.3507 30.8957 89.2993L21.3129 86.4412C21.6 85.4784 21.8895 84.5156 22.1812 83.5529L31.7514 86.4532ZM30.054 92.1446C29.7758 93.0929 29.4999 94.041 29.2265 94.9889L19.6183 92.2172C19.8959 91.2547 20.176 90.2921 20.4585 89.3294L30.054 92.1446ZM28.4135 97.8317C28.143 98.7859 27.875 99.7397 27.6096 100.693L17.976 98.0112C18.2456 97.0425 18.5179 96.0735 18.7926 95.1044L28.4135 97.8317ZM26.8165 103.569C26.5548 104.527 26.2957 105.484 26.0392 106.441L16.38 103.853C16.6407 102.88 16.9041 101.907 17.1701 100.933L26.8165 103.569ZM25.2779 109.311C25.0269 110.266 24.7785 111.222 24.533 112.176L14.8483 109.685C15.0981 108.714 15.3507 107.742 15.606 106.77L25.2779 109.311ZM23.8046 115.038C23.5646 115.992 23.3274 116.944 23.093 117.896L13.383 115.505C13.6216 114.536 13.863 113.567 14.1072 112.597L23.8046 115.038ZM22.3874 120.796C22.1546 121.764 21.9248 122.731 21.6981 123.697L11.9625 121.413C12.1935 120.429 12.4275 119.443 12.6646 118.458L22.3874 120.796ZM21.0272 126.593C20.8067 127.557 20.5893 128.52 20.375 129.482L10.6141 127.309C10.8326 126.328 11.0542 125.346 11.2789 124.363L21.0272 126.593ZM19.7419 132.365C19.534 133.325 19.3294 134.283 19.128 135.241L9.34219 133.182C9.54768 132.205 9.75644 131.227 9.96845 130.249L19.7419 132.365ZM18.5295 138.13C18.3299 139.109 18.1337 140.086 17.9412 141.061L8.13044 139.125C8.32715 138.128 8.52744 137.131 8.73123 136.131L18.5295 138.13ZM17.3741 143.984C17.1887 144.957 17.0068 145.928 16.8286 146.897L6.99338 145.089C7.17561 144.098 7.36151 143.105 7.55104 142.111L17.3741 143.984ZM16.305 149.801C16.1341 150.767 15.967 151.731 15.8036 152.694L5.94463 151.02C6.11191 150.034 6.28299 149.048 6.4578 148.059L16.305 149.801ZM15.3247 155.576C15.1645 156.561 15.0084 157.544 14.8564 158.526L4.9743 156.994C5.13016 155.988 5.29015 154.981 5.45421 153.971L15.3247 155.576ZM14.411 161.473C14.2667 162.453 14.1266 163.432 13.9907 164.408L4.08626 163.028C4.22579 162.026 4.3696 161.022 4.51763 160.017L14.411 161.473ZM13.5956 167.328C13.4682 168.3 13.345 169.268 13.2262 170.235L3.30093 169.015C3.42309 168.021 3.54966 167.025 3.68057 166.027L13.5956 167.328ZM12.8828 173.127C12.77 174.112 12.6617 175.095 12.5582 176.075L2.61356 175.024C2.72021 174.015 2.83162 173.003 2.94773 171.989L12.8828 173.127ZM12.2583 179.041C12.1631 180.027 12.0728 181.01 11.9874 181.99L2.02516 181.122C2.11328 180.111 2.20642 179.097 2.30451 178.081L12.2583 179.041ZM11.746 184.921C11.6705 185.894 11.5999 186.865 11.5344 187.833L1.55724 187.157C1.62499 186.156 1.69791 185.153 1.77592 184.147L11.746 184.921ZM11.353 190.725C11.296 191.714 11.2443 192.699 11.1982 193.68L1.20923 193.211C1.25707 192.193 1.31053 191.173 1.36955 190.149L11.353 190.725ZM11.0747 196.653C11.0392 197.64 11.0094 198.623 10.9853 199.602L0.988346 199.356C1.01338 198.339 1.04437 197.318 1.08121 196.293L11.0747 196.653ZM10.9303 202.528C10.9178 203.499 10.911 204.466 10.9101 205.429L0.910128 205.42C0.911046 204.417 0.918083 203.409 0.931148 202.399L10.9303 202.528ZM10.9251 208.306C10.9365 209.302 10.9544 210.294 10.9788 211.281L0.981868 211.528C0.956349 210.496 0.93769 209.46 0.925794 208.42L10.9251 208.306ZM11.0721 214.237C11.1098 215.217 11.1542 216.193 11.2053 217.163L1.21911 217.689C1.16549 216.671 1.11898 215.648 1.07947 214.621L11.0721 214.237ZM11.3788 220.058C11.4434 221.018 11.5148 221.973 11.5931 222.922L1.62694 223.744C1.54447 222.744 1.46932 221.739 1.40138 220.73L11.3788 220.058ZM11.8548 225.817C11.9519 226.803 12.0566 227.782 12.169 228.756L2.23505 229.903C2.11607 228.873 2.0054 227.838 1.90293 226.797L11.8548 225.817ZM12.5296 231.657C12.6575 232.618 12.7933 233.573 12.937 234.521L3.04983 236.019C2.89705 235.011 2.75285 233.997 2.6171 232.977L12.5296 231.657ZM13.3916 237.345C13.5529 238.29 13.7223 239.229 13.8999 240.16L4.07675 242.033C3.88685 241.037 3.70599 240.035 3.53402 239.027L13.3916 237.345ZM14.4803 243.043C14.6827 243.996 14.8941 244.941 15.1145 245.879L5.37967 248.167C5.14257 247.158 4.91554 246.142 4.69844 245.12L14.4803 243.043ZM15.8027 248.668C16.0412 249.59 16.2887 250.504 16.5455 251.41L6.92452 254.137C6.64646 253.156 6.3788 252.168 6.12137 251.173L15.8027 248.668ZM17.353 254.134C17.6415 255.066 17.9401 255.988 18.2489 256.901L8.77615 260.105C8.43928 259.109 8.11418 258.105 7.80068 257.093L17.353 254.134ZM19.2062 259.612C19.5355 260.506 19.8752 261.391 20.2253 262.267L10.9402 265.98C10.5555 265.018 10.1829 264.047 9.82228 263.068L19.2062 259.612ZM21.3067 264.864C21.6847 265.736 22.0736 266.599 22.4735 267.451L13.4208 271.699C12.9779 270.755 12.5481 269.802 12.131 268.84L21.3067 264.864ZM23.7295 270.022C24.1597 270.869 24.6013 271.704 25.0545 272.529L16.2904 277.345C15.7846 276.424 15.2927 275.493 14.8145 274.552L23.7295 270.022ZM26.449 274.971C26.9255 275.774 27.4138 276.566 27.9138 277.346L19.4929 282.74C18.9309 281.862 18.3831 280.974 17.8494 280.074L26.449 274.971ZM29.4804 279.7C30.0157 280.474 30.5635 281.236 31.124 281.986L23.1121 287.97C22.4784 287.122 21.8598 286.261 21.2563 285.389L29.4804 279.7ZM32.8435 284.202C33.4294 284.928 34.0282 285.643 34.64 286.346L27.0975 292.912C26.4025 292.114 25.723 291.302 25.0589 290.479L32.8435 284.202ZM36.5119 288.415C37.1479 289.092 37.797 289.757 38.4595 290.409L31.4425 297.534C30.688 296.791 29.9491 296.034 29.2255 295.264L36.5119 288.415ZM40.4874 292.33C41.1769 292.958 41.8801 293.574 42.5971 294.178L36.1566 301.828C35.3397 301.14 34.5385 300.438 33.7528 299.722L40.4874 292.33ZM44.7901 295.952C45.5127 296.513 46.2486 297.063 46.9981 297.601L41.167 305.725C40.3147 305.113 39.4772 304.488 38.6545 303.848L44.7901 295.952ZM49.2847 299.177C50.0607 299.691 50.8504 300.193 51.6542 300.682L46.4525 309.223C45.542 308.668 44.6463 308.099 43.7654 307.516L49.2847 299.177ZM54.1081 302.114C54.9244 302.571 55.7545 303.015 56.5986 303.448L52.0381 312.347C51.0873 311.86 50.1508 311.359 49.2286 310.843L54.1081 302.114ZM59.0684 304.66C59.9047 305.053 60.7542 305.435 61.6171 305.806L57.672 314.994C56.7066 314.58 55.7545 314.152 54.8155 313.711L59.0684 304.66ZM64.2461 306.883C65.1359 307.23 66.0394 307.566 66.9566 307.891L63.6234 317.319C62.605 316.959 61.5998 316.585 60.6079 316.197L64.2461 306.883ZM69.658 308.799C70.5261 309.076 71.4059 309.343 72.2977 309.6L69.5311 319.209C68.5484 318.926 67.5771 318.632 66.617 318.325L69.658 308.799ZM75.0092 310.339C75.9251 310.575 76.8531 310.801 77.7933 311.016L75.5631 320.764C74.535 320.529 73.5183 320.281 72.513 320.022L75.0092 310.339ZM80.6508 311.629C81.6115 311.822 82.5844 312.004 83.5697 312.176L81.8551 322.028C80.7859 321.842 79.7281 321.644 78.6817 321.433L80.6508 311.629ZM86.2854 312.616C87.201 312.754 88.1268 312.883 89.063 313.002L87.7965 322.922C86.7872 322.793 85.7875 322.654 84.7973 322.505L86.2854 312.616ZM91.9029 313.333C92.86 313.434 93.8275 313.526 94.8056 313.608L93.967 323.573C92.9193 323.485 91.8813 323.387 90.8529 323.278L91.9029 313.333ZM97.7715 313.827C98.758 313.889 99.7548 313.943 100.762 313.986L100.328 323.977C99.2555 323.93 98.1925 323.874 97.139 323.807L97.7715 313.827ZM103.53 314.082C104.462 314.106 105.402 314.122 106.351 314.131L106.263 324.13C105.258 324.122 104.261 324.104 103.272 324.079L103.53 314.082ZM109.223 314.132C110.189 314.124 111.164 314.108 112.148 314.084L112.39 324.081C111.353 324.107 110.324 324.123 109.303 324.131L109.223 314.132ZM115.125 313.988C116.126 313.948 117.136 313.9 118.155 313.843L118.711 323.828C117.641 323.887 116.579 323.938 115.526 323.98L115.125 313.988ZM121.068 313.66C121.992 313.596 122.924 313.524 123.863 313.446L124.691 323.412C123.709 323.493 122.734 323.568 121.765 323.636L121.068 313.66ZM126.701 313.192C127.654 313.1 128.614 313.002 129.582 312.897L130.663 322.838C129.654 322.948 128.652 323.05 127.657 323.146L126.701 313.192ZM132.506 312.56C133.488 312.442 134.477 312.316 135.473 312.183L136.794 322.095C135.759 322.233 134.73 322.364 133.708 322.488L132.506 312.56ZM138.484 311.764C139.483 311.618 140.489 311.467 141.503 311.308L143.051 321.187C142.001 321.352 140.958 321.509 139.921 321.66L138.484 311.764ZM144.266 310.86C145.193 310.706 146.126 310.545 147.065 310.379L148.808 320.226C147.838 320.398 146.873 320.564 145.913 320.724L144.266 310.86ZM149.899 309.863C150.85 309.686 151.806 309.502 152.769 309.313L154.698 319.125C153.705 319.32 152.718 319.51 151.736 319.693L149.899 309.863ZM155.674 308.728C156.648 308.527 157.628 308.321 158.614 308.108L160.721 317.884C159.706 318.102 158.696 318.315 157.692 318.522L155.674 308.728ZM161.59 307.453C162.588 307.229 163.592 306.998 164.602 306.762L166.879 316.5C165.841 316.742 164.809 316.979 163.783 317.21L161.59 307.453ZM167.387 306.1C168.301 305.879 169.22 305.653 170.143 305.422L172.567 315.124C171.62 315.36 170.677 315.592 169.739 315.819L167.387 306.1ZM172.928 304.716C173.861 304.475 174.798 304.23 175.741 303.98L178.305 313.646C177.339 313.902 176.378 314.153 175.422 314.399L172.928 304.716ZM178.584 303.215C179.536 302.955 180.494 302.691 181.456 302.421L184.154 312.05C183.17 312.326 182.19 312.597 181.216 312.863L178.584 303.215ZM184.358 301.597C185.33 301.318 186.307 301.033 187.288 300.744L190.116 310.336C189.113 310.631 188.115 310.922 187.121 311.208L184.358 301.597ZM190.249 299.861C191.185 299.578 192.126 299.291 193.071 298.999L196.019 308.555C195.055 308.852 194.095 309.145 193.139 309.434L190.249 299.861ZM195.781 298.155C196.688 297.869 197.599 297.58 198.514 297.286L201.57 306.808C200.637 307.107 199.708 307.402 198.783 307.693L195.781 298.155ZM201.272 296.393C202.195 296.091 203.122 295.785 204.053 295.474L207.213 304.962C206.265 305.278 205.32 305.59 204.38 305.897L201.272 296.393ZM206.859 294.532C207.799 294.213 208.742 293.891 209.69 293.564L212.95 303.018C211.986 303.35 211.026 303.678 210.07 304.002L206.859 294.532ZM212.545 292.571C213.5 292.236 214.46 291.897 215.424 291.553L218.781 300.973C217.801 301.322 216.825 301.667 215.853 302.008L212.545 292.571ZM218.328 290.51C219.278 290.166 220.232 289.818 221.19 289.466L224.639 298.852C223.666 299.21 222.697 299.563 221.732 299.913L218.328 290.51ZM223.852 288.481C224.742 288.15 225.636 287.814 226.533 287.476L230.065 296.831C229.154 297.175 228.246 297.515 227.342 297.852L223.852 288.481ZM229.235 286.449C230.139 286.103 231.047 285.754 231.958 285.402L235.568 294.727C234.644 295.085 233.724 295.439 232.807 295.79L229.235 286.449ZM234.7 284.333C235.618 283.974 236.539 283.61 237.463 283.244L241.151 292.539C240.214 292.911 239.28 293.279 238.35 293.643L234.7 284.333ZM240.246 282.133C241.177 281.759 242.112 281.382 243.05 281.001L246.812 290.266C245.862 290.652 244.915 291.034 243.972 291.413L240.246 282.133ZM245.874 279.847C246.819 279.459 247.767 279.068 248.719 278.673L252.554 287.908C251.59 288.308 250.63 288.705 249.673 289.098L245.874 279.847ZM251.584 277.476C252.472 277.104 253.362 276.728 254.256 276.349L258.158 285.556C257.254 285.94 256.353 286.32 255.455 286.697L251.584 277.476ZM256.886 275.229C257.766 274.853 258.648 274.473 259.534 274.091L263.499 283.271C262.603 283.658 261.71 284.042 260.82 284.423L256.886 275.229ZM262.199 272.934C263.09 272.546 263.984 272.155 264.881 271.76L268.906 280.914C267.999 281.313 267.095 281.709 266.194 282.102L262.199 272.934ZM267.579 270.568C268.482 270.168 269.387 269.764 270.296 269.358L274.38 278.486C273.462 278.896 272.547 279.304 271.635 279.709L267.579 270.568ZM273.029 268.13C273.943 267.717 274.86 267.302 275.78 266.883L279.922 275.985C278.993 276.408 278.066 276.827 277.143 277.244L273.029 268.13ZM278.548 265.618C279.473 265.193 280.402 264.766 281.333 264.335L285.531 273.411C284.591 273.846 283.653 274.278 282.718 274.707L278.548 265.618ZM284.136 263.033C285.06 262.603 285.987 262.169 286.916 261.732L291.169 270.783C290.23 271.224 289.294 271.662 288.361 272.097L284.136 263.033ZM289.497 260.515C290.359 260.107 291.224 259.697 292.092 259.284L296.393 268.311C295.517 268.728 294.644 269.143 293.773 269.555L289.497 260.515ZM294.701 258.036C295.574 257.618 296.448 257.197 297.325 256.773L301.674 265.778C300.789 266.206 299.906 266.63 299.026 267.053L294.701 258.036ZM299.964 255.495C300.846 255.066 301.731 254.635 302.617 254.201L307.012 263.184C306.117 263.621 305.225 264.056 304.336 264.489L299.964 255.495ZM305.285 252.892C306.177 252.453 307.071 252.011 307.968 251.567L312.408 260.527C311.504 260.975 310.602 261.42 309.703 261.863L305.285 252.892ZM310.665 250.226C311.567 249.776 312.471 249.324 313.377 248.869L317.861 257.808C316.948 258.266 316.036 258.722 315.127 259.175L310.665 250.226ZM316.104 247.497C317.015 247.037 317.929 246.574 318.845 246.109L323.373 255.025C322.45 255.494 321.529 255.961 320.61 256.424L316.104 247.497ZM321.602 244.705C322.501 244.246 323.404 243.784 324.308 243.319L328.878 252.214C327.966 252.682 327.057 253.148 326.151 253.611L321.602 244.705ZM326.852 242.008C327.702 241.569 328.555 241.128 329.409 240.685L334.017 249.56C333.156 250.007 332.297 250.451 331.441 250.893L326.852 242.008ZM331.978 239.347C332.837 238.899 333.697 238.449 334.56 237.997L339.205 246.852C338.336 247.308 337.469 247.761 336.604 248.213L331.978 239.347ZM337.154 236.632C338.021 236.176 338.89 235.716 339.761 235.255L344.442 244.091C343.565 244.556 342.69 245.018 341.817 245.479L337.154 236.632ZM342.38 233.864C343.255 233.398 344.133 232.93 345.012 232.459L349.729 241.277C348.844 241.75 347.961 242.222 347.079 242.691L342.38 233.864ZM347.656 231.041C348.54 230.566 349.426 230.089 350.314 229.609L355.066 238.408C354.172 238.89 353.281 239.371 352.391 239.849L347.656 231.041ZM352.983 228.164C353.875 227.68 354.77 227.193 355.666 226.705L360.453 235.485C359.551 235.976 358.651 236.466 357.753 236.953L352.983 228.164ZM358.361 225.232C359.261 224.739 360.164 224.243 361.069 223.745L365.889 232.507C364.979 233.008 364.071 233.506 363.165 234.003L358.361 225.232ZM363.773 222.254C364.607 221.793 365.442 221.331 366.28 220.866L371.132 229.61C370.29 230.077 369.449 230.543 368.61 231.006L363.773 222.254ZM368.797 219.466C369.638 218.998 370.48 218.527 371.325 218.055L376.207 226.782C375.358 227.257 374.51 227.73 373.664 228.202L368.797 219.466ZM373.863 216.632C374.711 216.155 375.561 215.677 376.413 215.197L381.325 223.907C380.468 224.39 379.613 224.871 378.76 225.351L373.863 216.632ZM378.973 213.75C379.829 213.266 380.686 212.78 381.544 212.292L386.485 220.986C385.621 221.477 384.76 221.966 383.9 222.453L378.973 213.75ZM384.127 210.822C384.989 210.33 385.853 209.836 386.72 209.34L391.689 218.018C390.818 218.517 389.949 219.013 389.082 219.508L384.127 210.822ZM389.323 207.846C390.193 207.346 391.065 206.844 391.938 206.34L396.935 215.002C396.057 215.509 395.181 216.013 394.307 216.516L389.323 207.846ZM394.564 204.823C395.441 204.315 396.32 203.805 397.201 203.293L402.225 211.939C401.34 212.454 400.457 212.966 399.575 213.477L394.564 204.823ZM399.848 201.752C400.733 201.236 401.619 200.718 402.507 200.198L407.559 208.829C406.666 209.351 405.776 209.871 404.887 210.39L399.848 201.752ZM405.177 198.633C405.623 198.371 406.07 198.108 406.517 197.845L411.589 206.464C411.139 206.728 410.69 206.992 410.242 207.255L405.177 198.633ZM406.517 197.845C406.966 197.58 407.416 197.316 407.865 197.053L412.929 205.676C412.482 205.938 412.036 206.2 411.589 206.464L406.517 197.845ZM410.555 195.476C411.45 194.952 412.345 194.43 413.238 193.91L418.271 202.551C417.383 203.068 416.494 203.587 415.604 204.108L410.555 195.476ZM415.914 192.354C416.805 191.837 417.695 191.322 418.583 190.809L423.586 199.467C422.703 199.978 421.818 200.49 420.932 201.004L415.914 192.354ZM421.246 189.273C422.132 188.763 423.017 188.255 423.901 187.749L428.873 196.425C427.994 196.929 427.114 197.434 426.233 197.941L421.246 189.273ZM426.55 186.234C427.431 185.731 428.312 185.23 429.191 184.73L434.132 193.424C433.257 193.921 432.382 194.419 431.506 194.92L426.55 186.234ZM431.826 183.236C432.703 182.74 433.579 182.245 434.454 181.752L439.362 190.465C438.493 190.955 437.622 191.446 436.75 191.939L431.826 183.236ZM437.075 180.279C437.947 179.789 438.819 179.302 439.689 178.816L444.565 187.546C443.7 188.029 442.834 188.514 441.967 189L437.075 180.279ZM442.296 177.362C443.164 176.88 444.031 176.399 444.897 175.92L449.741 184.668C448.88 185.144 448.019 185.622 447.156 186.102L442.296 177.362ZM447.49 174.487C448.354 174.011 449.216 173.537 450.077 173.064L454.888 181.831C454.032 182.3 453.176 182.772 452.318 183.244L447.49 174.487ZM452.657 171.651C453.516 171.182 454.374 170.715 455.231 170.249L460.008 179.034C459.157 179.497 458.305 179.961 457.451 180.427L452.657 171.651ZM457.797 168.856C458.651 168.394 459.505 167.933 460.357 167.474L465.1 176.277C464.254 176.733 463.406 177.191 462.558 177.651L457.797 168.856ZM463.073 166.014C463.991 165.522 464.907 165.032 465.822 164.544L470.529 173.367C469.62 173.851 468.71 174.338 467.798 174.827L463.073 166.014ZM468.563 163.085C469.475 162.601 470.386 162.118 471.296 161.638L475.966 170.481C475.062 170.958 474.157 171.437 473.251 171.918L468.563 163.085ZM474.021 160.202C474.929 159.726 475.834 159.251 476.739 158.778L481.371 167.641C480.473 168.11 479.573 168.582 478.672 169.055L474.021 160.202ZM479.449 157.366C480.351 156.897 481.251 156.43 482.151 155.965L486.744 164.848C485.851 165.309 484.957 165.773 484.061 166.239L479.449 157.366ZM484.845 154.576C485.741 154.114 486.637 153.655 487.531 153.197L492.086 162.1C491.198 162.554 490.309 163.01 489.419 163.468L484.845 154.576ZM490.209 151.831C491.101 151.377 491.991 150.925 492.88 150.475L497.396 159.398C496.513 159.844 495.63 160.293 494.745 160.743L490.209 151.831ZM495.543 149.131C496.429 148.685 497.314 148.241 498.198 147.799L502.674 156.741C501.797 157.18 500.918 157.621 500.039 158.064L495.543 149.131ZM500.846 146.477C501.727 146.039 502.607 145.602 503.485 145.167L507.921 154.13C507.049 154.561 506.176 154.995 505.301 155.43L500.846 146.477ZM506.117 143.869C506.993 143.437 507.868 143.008 508.742 142.581L513.136 151.563C512.27 151.987 511.402 152.413 510.532 152.841L506.117 143.869ZM511.358 141.304C512.274 140.859 513.189 140.415 514.102 139.974L518.455 148.977C517.549 149.415 516.641 149.855 515.732 150.297L511.358 141.304ZM516.915 138.618C517.851 138.169 518.786 137.721 519.719 137.276L524.026 146.301C523.101 146.743 522.173 147.187 521.245 147.633L516.915 138.618ZM522.514 135.947C523.444 135.506 524.373 135.067 525.3 134.63L529.561 143.677C528.642 144.11 527.721 144.545 526.798 144.982L522.514 135.947ZM528.077 133.326C529.001 132.894 529.924 132.464 530.845 132.035L535.06 141.104C534.146 141.529 533.231 141.955 532.315 142.384L528.077 133.326ZM533.605 130.757C534.523 130.334 535.44 129.912 536.355 129.492L540.522 138.583C539.615 138.999 538.706 139.417 537.796 139.837L533.605 130.757ZM539.097 128.24C540.009 127.824 540.92 127.411 541.83 127L545.949 136.112C545.048 136.52 544.145 136.929 543.24 137.341L539.097 128.24ZM544.554 125.773C545.46 125.366 546.365 124.961 547.269 124.559L551.34 133.693C550.444 134.092 549.547 134.493 548.649 134.896L544.554 125.773ZM549.975 123.357C550.876 122.958 551.775 122.562 552.673 122.168L556.694 131.323C555.805 131.714 554.914 132.107 554.021 132.502L549.975 123.357ZM555.362 120.991C556.256 120.601 557.15 120.213 558.042 119.827L562.013 129.004C561.13 129.387 560.245 129.771 559.358 130.158L555.362 120.991ZM560.713 118.675C561.67 118.264 562.624 117.856 563.578 117.45L567.497 126.65C566.553 127.052 565.607 127.456 564.659 127.863L560.713 118.675ZM566.451 116.231C567.407 115.827 568.361 115.426 569.314 115.027L573.177 124.25C572.234 124.645 571.289 125.043 570.342 125.443L566.451 116.231ZM572.166 113.837C573.116 113.443 574.063 113.051 575.009 112.661L578.816 121.908C577.879 122.294 576.941 122.682 576.002 123.072L572.166 113.837ZM577.841 111.5C578.784 111.116 579.725 110.734 580.664 110.354L584.413 119.624C583.484 120 582.553 120.378 581.62 120.759L577.841 111.5ZM583.476 109.221C584.412 108.846 585.346 108.474 586.278 108.103L589.969 117.397C589.047 117.763 588.123 118.132 587.197 118.503L583.476 109.221ZM589.07 106.999C589.999 106.634 590.926 106.27 591.852 105.91L595.485 115.227C594.569 115.584 593.651 115.943 592.732 116.305L589.07 106.999ZM594.624 104.834C595.547 104.478 596.467 104.124 597.386 103.772L600.959 113.112C600.05 113.46 599.139 113.81 598.227 114.162L594.624 104.834ZM600.138 102.725C601.054 102.378 601.968 102.034 602.88 101.691L606.392 111.054C605.49 111.393 604.586 111.734 603.68 112.077L600.138 102.725ZM605.613 100.672C606.564 100.319 607.513 99.9679 608.461 99.6197L611.909 109.006C610.973 109.35 610.034 109.697 609.093 110.046L605.613 100.672ZM611.4 98.546C612.378 98.1908 613.353 97.8383 614.327 97.4885L617.708 106.9C616.745 107.246 615.781 107.594 614.814 107.945L611.4 98.546ZM617.243 96.4472C618.213 96.1028 619.181 95.7611 620.147 95.422L623.459 104.858C622.504 105.193 621.548 105.53 620.589 105.871L617.243 96.4472ZM623.04 94.4129C624.002 94.0792 624.963 93.7482 625.921 93.4198L629.162 102.88C628.215 103.204 627.267 103.531 626.316 103.861L623.04 94.4129ZM628.791 92.4427C629.745 92.1196 630.698 91.7992 631.649 91.4814L634.819 100.966C633.88 101.28 632.939 101.596 631.996 101.915L628.791 92.4427ZM634.496 90.536C635.443 90.2235 636.388 89.9137 637.331 89.6064L640.428 99.1147C639.497 99.418 638.564 99.7239 637.629 100.032L634.496 90.536ZM640.155 88.6926C641.094 88.3906 642.032 88.0912 642.967 87.7944L645.991 97.3264C645.068 97.6192 644.143 97.9146 643.215 98.2127L640.155 88.6926ZM645.769 86.9118C646.7 86.6203 647.63 86.3313 648.558 86.0449L651.507 95.6002C650.592 95.8828 649.674 96.1679 648.755 96.4555L645.769 86.9118ZM651.444 85.1609C652.446 84.8562 653.446 84.5545 654.443 84.2559L657.311 93.8357C656.328 94.1303 655.342 94.4278 654.353 94.7283L651.444 85.1609ZM657.43 83.3689C658.423 83.0763 659.414 82.7867 660.402 82.5L663.187 92.1047C662.212 92.3872 661.235 92.6727 660.256 92.9612L657.43 83.3689ZM663.362 81.6492C664.347 81.3685 665.329 81.0908 666.309 80.8161L669.008 90.4451C668.042 90.7157 667.074 90.9894 666.104 91.266L663.362 81.6492ZM669.242 80.001C670.218 79.7322 671.191 79.4664 672.163 79.2036L674.775 88.8564C673.818 89.1153 672.859 89.3771 671.898 89.6419L669.242 80.001ZM675.07 78.4239C676.037 78.167 677.002 77.9129 677.965 77.6619L680.488 87.3381C679.541 87.5853 678.591 87.8354 677.638 88.0885L675.07 78.4239ZM680.846 76.9173C681.804 76.6721 682.76 76.4297 683.714 76.1903L686.149 85.8895C685.21 86.1251 684.269 86.3637 683.325 86.6051L680.846 76.9173ZM686.57 75.4807C687.52 75.2471 688.467 75.0163 689.412 74.7885L691.756 84.5101C690.825 84.7342 689.893 84.9613 688.959 85.1912L686.57 75.4807ZM692.369 74.0837C693.389 73.8432 694.406 73.6062 695.42 73.3725L697.665 83.1173C696.667 83.3472 695.667 83.5803 694.664 83.8167L692.369 74.0837ZM698.457 72.6814C699.467 72.4544 700.474 72.2307 701.478 72.0104L703.621 81.7782C702.633 81.9948 701.643 82.2147 700.65 82.4379L698.457 72.6814ZM704.485 71.3593C705.485 71.1456 706.482 70.9353 707.476 70.7281L709.515 80.5182C708.537 80.7216 707.558 80.9283 706.575 81.1384L704.485 71.3593ZM710.453 70.1167C711.443 69.9162 712.43 69.719 713.415 69.525L715.348 79.3365C714.38 79.527 713.411 79.7207 712.439 79.9176L710.453 70.1167ZM716.362 68.9529C717.342 68.7654 718.319 68.5812 719.294 68.4003L721.119 78.2324C720.162 78.41 719.203 78.5907 718.241 78.7748L716.362 68.9529ZM722.212 67.8671C723.182 67.6926 724.15 67.5214 725.115 67.3533L726.83 77.2051C725.883 77.3699 724.934 77.538 723.982 77.7092L722.212 67.8671ZM728.003 66.8588C729.018 66.6879 730.03 66.5207 731.039 66.357L732.64 76.228C731.65 76.3885 730.658 76.5525 729.663 76.72L728.003 66.8588ZM734.131 65.8652C735.159 65.705 736.184 65.5485 737.207 65.3957L738.685 75.2857C737.683 75.4355 736.679 75.5889 735.671 75.7459L734.131 65.8652ZM740.265 64.9482C741.282 64.8028 742.295 64.661 743.306 64.5228L744.66 74.4307C743.67 74.566 742.677 74.7049 741.681 74.8474L740.265 64.9482ZM746.331 64.1193C747.336 63.9884 748.339 63.8612 749.339 63.7376L750.566 73.662C749.587 73.783 748.606 73.9075 747.622 74.0356L746.331 64.1193ZM752.33 63.3776C753.324 63.2612 754.315 63.1484 755.304 63.0391L756.402 72.9787C755.435 73.0855 754.465 73.1958 753.493 73.3097L752.33 63.3776ZM758.261 62.7221C759.244 62.62 760.224 62.5215 761.202 62.4265L762.169 72.3796C761.214 72.4725 760.255 72.5688 759.294 72.6686L758.261 62.7221ZM764.126 62.1521C765.161 62.0585 766.193 61.9689 767.222 61.8832L768.052 71.8487C767.047 71.9324 766.039 72.02 765.027 72.1115L764.126 62.1521ZM770.341 61.6349C771.377 61.5562 772.41 61.4816 773.44 61.411L774.124 71.3876C773.118 71.4565 772.11 71.5293 771.098 71.6062L770.341 61.6349ZM776.52 61.2113C777.544 61.1487 778.564 61.0902 779.582 61.0357L780.117 71.0213C779.125 71.0745 778.129 71.1316 777.13 71.1927L776.52 61.2113ZM782.624 60.884C783.635 60.8374 784.643 60.7947 785.647 60.7561L786.032 70.7487C785.053 70.7864 784.07 70.828 783.084 70.8733L782.624 60.884ZM788.652 60.6519C789.65 60.6211 790.645 60.5942 791.637 60.5712L791.869 70.5685C790.903 70.5909 789.933 70.6171 788.96 70.6471L788.652 60.6519ZM794.604 60.5138C795.59 60.4987 796.572 60.4873 797.552 60.4798L797.629 70.4796C796.675 70.4868 795.718 70.4979 794.758 70.5127L794.604 60.5138ZM800.661 60.469C801.707 60.4697 802.75 60.4748 803.788 60.4844L803.697 70.484C802.686 70.4747 801.672 70.4697 800.654 70.469L800.661 60.469ZM806.894 60.5262C807.926 60.5445 808.954 60.5671 809.979 60.5941L809.715 70.5907C808.72 70.5644 807.72 70.5424 806.717 70.5246L806.894 60.5262ZM813.042 60.6882C814.06 60.7238 815.074 60.7638 816.084 60.808L815.646 70.7984C814.665 70.7555 813.68 70.7166 812.692 70.682L813.042 60.6882ZM819.105 60.9536C820.108 61.0064 821.108 61.0634 822.104 61.1247L821.491 71.1058C820.524 71.0464 819.553 70.991 818.579 70.9398L819.105 60.9536ZM825.083 61.3212C826.072 61.3909 827.058 61.4647 828.041 61.5428L827.248 71.5114C826.296 71.4357 825.34 71.364 824.38 71.2964L825.083 61.3212ZM831.097 61.8C832.139 61.8927 833.178 61.9902 834.213 62.0923L833.231 72.044C832.228 71.945 831.222 71.8506 830.211 71.7608L831.097 61.8ZM837.305 62.4128C838.332 62.5243 839.355 62.6404 840.374 62.7612L839.197 72.6917C838.211 72.5748 837.22 72.4623 836.226 72.3544L837.305 62.4128ZM843.419 63.1374C844.43 63.2674 845.438 63.402 846.441 63.5412L845.067 73.4463C844.097 73.3118 843.122 73.1816 842.144 73.0558L843.419 63.1374ZM849.439 63.9723C850.435 64.1205 851.426 64.2732 852.414 64.4304L850.842 74.3061C849.887 74.1542 848.929 74.0065 847.966 73.8632L849.439 63.9723ZM855.365 64.9156C856.347 65.0819 857.324 65.2528 858.298 65.4281L856.526 75.2699C855.585 75.1006 854.641 74.9356 853.693 74.7748L855.365 64.9156ZM861.382 66.0007C862.406 66.1965 863.426 66.3973 864.441 66.603L862.455 76.4039C861.476 76.2055 860.492 76.0117 859.504 75.8227L861.382 66.0007ZM867.474 67.2346C868.48 67.45 869.482 67.6702 870.48 67.8953L868.281 77.6503C867.318 77.4334 866.352 77.2209 865.381 77.0132L867.474 67.2346ZM873.461 68.5848C874.451 68.8195 875.436 69.0589 876.417 69.303L874.002 79.007C873.057 78.7718 872.108 78.5411 871.154 78.315L873.461 68.5848ZM879.347 70.0495C880.319 70.303 881.287 70.5612 882.251 70.824L879.62 80.4717C878.692 80.2187 877.76 79.9701 876.824 79.726L879.347 70.0495ZM885.132 71.627C886.139 71.9137 887.141 72.2055 888.138 72.5023L885.286 82.0869C884.326 81.8013 883.362 81.5206 882.393 81.2447L885.132 71.627ZM891.116 73.4079C892.105 73.7148 893.088 74.0266 894.067 74.3435L890.987 83.8575C890.046 83.5529 889.101 83.253 888.15 82.9579L891.116 73.4079ZM896.989 75.3087C897.959 75.6353 898.924 75.9669 899.884 76.3032L896.578 85.741C895.655 85.4178 894.728 85.0992 893.796 84.7853L896.989 75.3087ZM902.751 77.3268C903.702 77.6729 904.648 78.0237 905.59 78.3792L902.059 87.735C901.155 87.3935 900.246 87.0566 899.332 86.7243L902.751 77.3268ZM908.403 79.46C909.355 79.8326 910.303 80.21 911.245 80.5923L907.488 89.8595C906.583 89.4926 905.673 89.1303 904.759 88.7726L908.403 79.46ZM914.125 81.7811C915.08 82.1824 916.03 82.5887 916.975 82.9999L912.986 92.1696C912.079 91.7752 911.168 91.3854 910.251 91.0004L914.125 81.7811ZM919.796 84.2483C920.731 84.6693 921.662 85.0952 922.587 85.5259L918.369 94.5923C917.481 94.1793 916.589 93.7709 915.692 93.367L919.796 84.2483ZM925.35 86.8323C926.265 87.2726 927.176 87.7177 928.083 88.1674L923.637 97.1249C922.768 96.6938 921.895 96.2672 921.017 95.845L925.35 86.8323ZM930.787 89.5305C931.692 89.9943 932.593 90.4627 933.489 90.9359L928.819 99.7785C927.96 99.325 927.097 98.8761 926.229 98.4316L930.787 89.5305ZM936.229 92.4058C937.137 92.9006 938.041 93.4003 938.939 93.9047L934.041 102.623C933.181 102.14 932.315 101.661 931.445 101.187L936.229 92.4058ZM941.617 95.4323C942.505 95.9461 943.388 96.4647 944.266 96.988L939.145 105.578C938.305 105.076 937.459 104.579 936.608 104.087L941.617 95.4323ZM946.884 98.5715C947.752 99.1039 948.614 99.6409 949.472 100.182L944.133 108.638C943.312 108.119 942.485 107.605 941.654 107.095L946.884 98.5715ZM952.03 101.82C952.886 102.376 953.738 102.937 954.584 103.502L949.031 111.819C948.22 111.277 947.405 110.74 946.584 110.207L952.03 101.82ZM957.151 105.24C958.001 105.824 958.846 106.412 959.685 107.005L953.919 115.175C953.114 114.607 952.305 114.043 951.49 113.484L957.151 105.24ZM962.189 108.796C963.018 109.398 963.843 110.003 964.662 110.614L958.688 118.633C957.903 118.048 957.113 117.468 956.318 116.891L962.189 108.796ZM967.104 112.457C967.913 113.076 968.716 113.699 969.515 114.326L963.34 122.191C962.574 121.59 961.804 120.993 961.028 120.4L967.104 112.457ZM971.896 116.219C972.696 116.864 973.49 117.512 974.28 118.165L967.908 125.872C967.151 125.246 966.389 124.624 965.622 124.007L971.896 116.219ZM976.647 120.147C977.431 120.812 978.209 121.481 978.983 122.154L972.418 129.698C971.677 129.052 970.93 128.411 970.178 127.773L976.647 120.147ZM981.287 124.185C982.05 124.866 982.808 125.55 983.561 126.239L976.812 133.618C976.089 132.957 975.362 132.3 974.63 131.646L981.287 124.185ZM985.804 128.316C986.547 129.013 987.285 129.713 988.017 130.416L981.089 137.628C980.386 136.952 979.678 136.28 978.965 135.612L985.804 128.316ZM990.205 132.544C990.938 133.265 991.666 133.99 992.389 134.719L985.289 141.761C984.594 141.061 983.895 140.364 983.191 139.671L990.205 132.544ZM994.542 136.917C995.255 137.653 995.962 138.393 996.665 139.136L989.398 146.005C988.723 145.291 988.042 144.58 987.358 143.872L994.542 136.917ZM998.757 141.375C999.45 142.125 1000.14 142.879 1000.82 143.636L993.393 150.332C992.736 149.604 992.075 148.88 991.409 148.159L998.757 141.375ZM1002.85 145.915C1003.52 146.679 1004.19 147.445 1004.85 148.215L997.274 154.738C996.637 153.998 995.994 153.26 995.347 152.526L1002.85 145.915ZM1006.84 150.552C1007.5 151.336 1008.16 152.124 1008.81 152.915L1001.08 159.264C1000.45 158.502 999.824 157.744 999.189 156.988L1006.84 150.552ZM1010.74 155.295C1011.38 156.092 1012.02 156.892 1012.65 157.694L1004.78 163.869C1004.17 163.096 1003.56 162.325 1002.94 161.558L1010.74 155.295ZM1014.52 160.11C1015.14 160.918 1015.76 161.729 1016.37 162.543L1008.37 168.545C1007.78 167.76 1007.19 166.978 1006.59 166.198L1014.52 160.11ZM1018.18 164.992C1018.79 165.814 1019.39 166.638 1019.98 167.466L1011.85 173.295C1011.28 172.496 1010.7 171.7 1010.12 170.907L1018.18 164.992ZM1021.75 169.969C1022.34 170.805 1022.92 171.645 1023.5 172.486L1015.25 178.143C1014.7 177.33 1014.13 176.519 1013.57 175.711L1021.75 169.969ZM1025.22 175.019C1025.79 175.866 1026.35 176.714 1026.91 177.565L1018.55 183.051C1018.01 182.229 1017.46 181.408 1016.91 180.59L1025.22 175.019ZM1028.57 180.126C1029.12 180.981 1029.66 181.839 1030.2 182.698L1021.73 188.015C1021.21 187.184 1020.68 186.354 1020.15 185.527L1028.57 180.126ZM1031.81 185.287C1032.34 186.158 1032.88 187.032 1033.4 187.907L1024.83 193.057C1024.32 192.209 1023.81 191.363 1023.29 190.52L1031.81 185.287ZM1034.97 190.54C1035.48 191.419 1035.99 192.301 1036.5 193.184L1027.83 198.166C1027.34 197.311 1026.84 196.457 1026.34 195.606L1034.97 190.54ZM1038.01 195.838C1038.51 196.724 1039 197.612 1039.49 198.502L1030.73 203.321C1030.25 202.459 1029.78 201.598 1029.29 200.738L1038.01 195.838ZM1040.95 201.176C1041.43 202.069 1041.9 202.963 1042.37 203.859L1033.52 208.517C1033.07 207.648 1032.61 206.78 1032.14 205.914L1040.95 201.176ZM1043.79 206.576C1044.26 207.484 1044.72 208.393 1045.18 209.303L1036.25 213.801C1035.8 212.917 1035.35 212.034 1034.9 211.153L1043.79 206.576ZM1046.54 212.038C1046.99 212.951 1047.43 213.865 1047.87 214.781L1038.87 219.121C1038.44 218.231 1038 217.343 1037.57 216.457L1046.54 212.038ZM1049.18 217.53C1049.62 218.447 1050.04 219.365 1050.47 220.284L1041.39 224.47C1040.97 223.576 1040.56 222.683 1040.14 221.792L1049.18 217.53ZM1051.73 223.045C1052.15 223.975 1052.56 224.906 1052.97 225.838L1043.82 229.871C1043.42 228.964 1043.02 228.058 1042.61 227.154L1051.73 223.045ZM1054.19 228.645C1054.6 229.581 1055 230.517 1055.39 231.455L1046.17 235.336C1045.79 234.423 1045.4 233.512 1045.01 232.601L1054.19 228.645ZM1056.56 234.268C1056.95 235.207 1057.33 236.146 1057.71 237.085L1048.43 240.818C1048.06 239.903 1047.69 238.989 1047.32 238.075L1056.56 234.268ZM1058.83 239.904C1059.2 240.844 1059.57 241.784 1059.93 242.725L1050.59 246.313C1050.24 245.396 1049.88 244.48 1049.52 243.564L1058.83 239.904ZM1061.01 245.582C1061.37 246.539 1061.73 247.496 1062.08 248.453L1052.69 251.896C1052.35 250.963 1052 250.03 1051.65 249.098L1061.01 245.582ZM1063.12 251.325C1063.46 252.282 1063.8 253.239 1064.13 254.195L1054.7 257.497C1054.37 256.563 1054.04 255.63 1053.7 254.696L1063.12 251.325ZM1065.13 257.065C1065.45 258.022 1065.78 258.978 1066.09 259.934L1056.61 263.096C1056.3 262.163 1055.98 261.23 1055.66 260.297L1065.13 257.065ZM1067.04 262.8C1067.35 263.772 1067.67 264.744 1067.97 265.715L1058.44 268.74C1058.14 267.792 1057.84 266.843 1057.53 265.894L1067.04 262.8ZM1068.89 268.639C1069.19 269.613 1069.49 270.586 1069.78 271.559L1060.21 274.448C1059.92 273.498 1059.63 272.547 1059.34 271.595L1068.89 268.639ZM1070.65 274.474C1070.94 275.445 1071.22 276.416 1071.5 277.385L1061.88 280.14C1061.61 279.193 1061.34 278.245 1061.06 277.296L1070.65 274.474ZM1072.32 280.289C1072.59 281.257 1072.86 282.224 1073.12 283.189L1063.47 285.814C1063.21 284.87 1062.95 283.925 1062.69 282.979L1072.32 280.289ZM1073.92 286.163C1074.18 287.153 1074.44 288.141 1074.69 289.128L1065.01 291.621C1064.76 290.656 1064.51 289.689 1064.25 288.721L1073.92 286.163ZM1075.44 292.085C1075.69 293.069 1075.93 294.052 1076.17 295.033L1066.45 297.397C1066.22 296.437 1065.98 295.476 1065.74 294.513L1075.44 292.085ZM1076.87 297.97C1077.1 298.947 1077.33 299.923 1077.55 300.897L1067.81 303.134C1067.59 302.181 1067.37 301.227 1067.14 300.27L1076.87 297.97ZM1078.22 303.858C1078.45 304.863 1078.67 305.866 1078.88 306.866L1069.11 308.977C1068.9 307.998 1068.68 307.016 1068.46 306.032L1078.22 303.858ZM1079.52 309.861C1079.73 310.857 1079.93 311.851 1080.13 312.841L1070.33 314.826C1070.14 313.856 1069.94 312.883 1069.73 311.908L1079.52 309.861ZM1080.72 315.807C1080.92 316.792 1081.11 317.775 1081.29 318.756L1071.47 320.617C1071.29 319.657 1071.1 318.694 1070.91 317.729L1080.72 315.807ZM1081.84 321.699C1082.03 322.718 1082.21 323.734 1082.39 324.747L1072.54 326.484C1072.37 325.492 1072.19 324.497 1072 323.499L1081.84 321.699ZM1082.91 327.775C1083.08 328.781 1083.25 329.784 1083.41 330.783L1073.54 332.395C1073.38 331.417 1073.22 330.435 1073.05 329.45L1082.91 327.775ZM1083.89 333.769C1084.05 334.76 1084.2 335.748 1084.35 336.732L1074.46 338.222C1074.31 337.258 1074.17 336.291 1074.01 335.32L1083.89 333.769ZM1084.78 339.673C1084.93 340.705 1085.08 341.732 1085.22 342.755L1075.31 344.121C1075.17 343.119 1075.03 342.113 1074.88 341.102L1084.78 339.673ZM1085.63 345.809C1085.76 346.822 1085.89 347.831 1086.02 348.834L1076.09 350.074C1075.97 349.091 1075.84 348.104 1075.71 347.112L1085.63 345.809ZM1086.38 351.83C1086.5 352.823 1086.61 353.811 1086.72 354.794L1076.78 355.91C1076.68 354.947 1076.56 353.98 1076.45 353.007L1086.38 351.83ZM1087.05 357.779C1087.16 358.819 1087.26 359.854 1087.37 360.882L1077.41 361.869C1077.31 360.863 1077.21 359.85 1077.1 358.831L1087.05 357.779ZM1087.66 363.946C1087.75 364.961 1087.84 365.97 1087.93 366.971L1077.97 367.827C1077.88 366.848 1077.79 365.861 1077.7 364.868L1087.66 363.946ZM1088.18 369.954C1088.25 370.941 1088.33 371.922 1088.4 372.895L1078.43 373.621C1078.36 372.67 1078.28 371.711 1078.21 370.745L1088.18 369.954ZM1088.62 376.015C1088.68 377.056 1088.75 378.089 1088.81 379.112L1078.83 379.697C1078.77 378.697 1078.7 377.689 1078.64 376.671L1088.62 376.015ZM1088.98 382.155C1089.03 383.16 1089.08 384.155 1089.12 385.141L1079.13 385.583C1079.09 384.622 1079.04 383.65 1078.99 382.669L1088.98 382.155ZM1089.24 388.07C1089.28 389.137 1089.31 390.192 1089.34 391.235L1079.35 391.525C1079.32 390.509 1079.28 389.481 1079.25 388.44L1089.24 388.07ZM1089.42 394.342C1089.44 395.365 1089.46 396.375 1089.47 397.372L1079.47 397.498C1079.46 396.529 1079.44 395.547 1079.42 394.551L1089.42 394.342ZM1089.5 400.323C1089.5 400.807 1089.5 401.287 1089.5 401.765L1079.5 401.765C1079.5 401.302 1079.5 400.835 1079.5 400.365L1089.5 400.323Z" fill="#00FF84"/>
</svg>
